<?xml version="1.0" standalone="no"?><!DOCTYPE svg PUBLIC "-//W3C//DTD SVG 1.1//EN" "http://www.w3.org/Graphics/SVG/1.1/DTD/svg11.dtd"><svg height="800" node-id="1" sillyvg="true" template-height="800" template-width="800" version="1.1" viewBox="0 0 800 800" width="800" xmlns="http://www.w3.org/2000/svg" xmlns:xlink="http://www.w3.org/1999/xlink"><defs node-id="145"><linearGradient gradientUnits="userSpaceOnUse" id="SVGID_1_" node-id="11" spreadMethod="pad" x1="400.2119" x2="400.2119" y1="159.3104" y2="714.802"><stop offset="0.00000009590021" stop-color="#f4f2fb"></stop><stop offset="1" stop-color="#e1eef5"></stop></linearGradient><linearGradient gradientUnits="userSpaceOnUse" id="SVGID_2_" node-id="15" spreadMethod="pad" x1="475.3059" x2="584.8447" y1="582.4971" y2="392.7704"><stop offset="0.0746" stop-color="#b4c9db"></stop><stop offset="0.9134" stop-color="#eaeef8"></stop><stop offset="1" stop-color="#ecf0f9"></stop></linearGradient><linearGradient gradientUnits="userSpaceOnUse" id="SVGID_3_" node-id="21" spreadMethod="pad" x1="115.2937" x2="115.2937" y1="540.6995" y2="403.525"><stop offset="0.2267" stop-color="#d0dceb"></stop><stop offset="0.7893" stop-color="#ecf1fb"></stop></linearGradient><linearGradient gradientUnits="userSpaceOnUse" id="SVGID_4_" node-id="26" spreadMethod="pad" x1="115.2956" x2="115.2956" y1="418.7567" y2="569.89"><stop offset="0" stop-color="#ecf1fb"></stop><stop offset="0.818" stop-color="#b6c9dd"></stop></linearGradient><linearGradient gradientUnits="userSpaceOnUse" id="SVGID_5_" node-id="31" spreadMethod="pad" x1="616.4225" x2="616.4225" y1="449.1776" y2="360.8531"><stop offset="0.2267" stop-color="#d0dceb"></stop><stop offset="0.7893" stop-color="#ecf1fb"></stop></linearGradient><linearGradient gradientUnits="userSpaceOnUse" id="SVGID_6_" node-id="36" spreadMethod="pad" x1="616.4238" x2="616.4238" y1="370.6605" y2="467.9728"><stop offset="0" stop-color="#ecf1fb"></stop><stop offset="0.818" stop-color="#b6c9dd"></stop></linearGradient><linearGradient gradientUnits="userSpaceOnUse" id="SVGID_7_" node-id="41" spreadMethod="pad" x1="673.1325" x2="673.1325" y1="544.7239" y2="510.393"><stop offset="0.2267" stop-color="#d0dceb"></stop><stop offset="0.7893" stop-color="#ecf1fb"></stop></linearGradient><linearGradient gradientUnits="userSpaceOnUse" id="SVGID_8_" node-id="45" spreadMethod="pad" x1="673.1931" x2="673.1931" y1="514.7277" y2="569.9913"><stop offset="0" stop-color="#ecf1fb"></stop><stop offset="0.818" stop-color="#b6c9dd"></stop></linearGradient><linearGradient gradientUnits="userSpaceOnUse" id="SVGID_9_" node-id="49" spreadMethod="pad" x1="462.3407" x2="427.5864" y1="86.571" y2="146.7671"><stop offset="0" stop-color="#ffdb80"></stop><stop offset="1" stop-color="#ffbb24"></stop></linearGradient><linearGradient gradientUnits="userSpaceOnUse" id="SVGID_10_" node-id="53" spreadMethod="pad" x1="420.0035" x2="420.0035" y1="117.0371" y2="174.4911"><stop offset="0" stop-color="#f9fafe"></stop><stop offset="1" stop-color="#e5edf7"></stop></linearGradient><linearGradient gradientUnits="userSpaceOnUse" id="SVGID_11_" node-id="59" spreadMethod="pad" x1="585.2773" x2="391.6233" y1="412.174" y2="412.174"><stop offset="0" stop-color="#acc1d1"></stop><stop offset="0.7989" stop-color="#dfe8f9"></stop></linearGradient><linearGradient gradientUnits="userSpaceOnUse" id="SVGID_12_" node-id="63" spreadMethod="pad" x1="293.4834" x2="293.4834" y1="620.3365" y2="369.1653"><stop offset="0" stop-color="#acc1d1"></stop><stop offset="0.7989" stop-color="#dfe8f9"></stop></linearGradient><linearGradient gradientUnits="userSpaceOnUse" id="SVGID_13_" node-id="67" spreadMethod="pad" x1="488.4503" x2="488.4503" y1="620.3365" y2="369.1653"><stop offset="0" stop-color="#c7d4e5"></stop><stop offset="0.6872" stop-color="#e8eff8"></stop></linearGradient><linearGradient gradientUnits="userSpaceOnUse" id="SVGID_14_" node-id="71" spreadMethod="pad" x1="293.4834" x2="293.4834" y1="534.319" y2="394.6264"><stop offset="0.15" stop-color="#b0c3d6"></stop><stop offset="1" stop-color="#bfd0e1"></stop></linearGradient><linearGradient gradientUnits="userSpaceOnUse" id="SVGID_15_" node-id="76" spreadMethod="pad" x1="513.575" x2="513.575" y1="506.6967" y2="369.0686"><stop offset="0" stop-color="#c7d4e5"></stop><stop offset="0.6872" stop-color="#e8eff8"></stop></linearGradient><linearGradient gradientUnits="userSpaceOnUse" id="SVGID_16_" node-id="80" spreadMethod="pad" x1="513.3886" x2="513.3886" y1="506.8002" y2="369.1721"><stop offset="0" stop-color="#c7d4e5"></stop><stop offset="0.6872" stop-color="#e8eff8"></stop></linearGradient><linearGradient gradientUnits="userSpaceOnUse" id="SVGID_17_" node-id="84" spreadMethod="pad" x1="229.8297" x2="320.5435" y1="510.7093" y2="353.5885"><stop offset="0" stop-color="#c7d4e5"></stop><stop offset="0.6872" stop-color="#e8eff8"></stop></linearGradient><linearGradient gradientUnits="userSpaceOnUse" id="SVGID_18_" node-id="88" spreadMethod="pad" x1="369.9603" x2="369.9603" y1="394.6264" y2="506.7934"><stop offset="0.0746" stop-color="#b4c9db"></stop><stop offset="1" stop-color="#c2d1e3"></stop></linearGradient><linearGradient gradientUnits="userSpaceOnUse" id="SVGID_19_" node-id="92" spreadMethod="pad" x1="391.6233" x2="435.6057" y1="450.7099" y2="450.7099"><stop offset="0" stop-color="#acc1d1"></stop><stop offset="0.7989" stop-color="#dfe8f9"></stop></linearGradient><linearGradient gradientUnits="userSpaceOnUse" id="SVGID_20_" node-id="96" spreadMethod="pad" x1="281.7383" x2="281.7383" y1="386.7688" y2="261.0172"><stop offset="0.3575" stop-color="#d0dceb"></stop><stop offset="1" stop-color="#ecf1fb"></stop></linearGradient><linearGradient gradientUnits="userSpaceOnUse" id="SVGID_21_" node-id="100" spreadMethod="pad" x1="354.746" x2="354.746" y1="391.3976" y2="247.324"><stop offset="0.3575" stop-color="#d0dceb"></stop><stop offset="1" stop-color="#ecf1fb"></stop></linearGradient><linearGradient gradientUnits="userSpaceOnUse" id="SVGID_22_" node-id="104" spreadMethod="pad" x1="428.5254" x2="428.5254" y1="394.6264" y2="247.9129"><stop offset="0.3575" stop-color="#d0dceb"></stop><stop offset="1" stop-color="#ecf1fb"></stop></linearGradient><linearGradient gradientTransform="matrix(0.6961 0.7179 0.7179 -0.6961 -4599.6377 6199.9648)" gradientUnits="userSpaceOnUse" id="SVGID_23_" node-id="109" spreadMethod="pad" x1="-556.0419" x2="-556.0419" y1="7720.6216" y2="7707.801"><stop offset="0" stop-color="#4673bc"></stop><stop offset="0.652" stop-color="#6a94e0"></stop></linearGradient><linearGradient gradientUnits="userSpaceOnUse" id="SVGID_24_" node-id="115" spreadMethod="pad" x1="514.2037" x2="514.2037" y1="395.8868" y2="464.5604"><stop offset="0" stop-color="#18264b"></stop><stop offset="0.652" stop-color="#2d3c65"></stop></linearGradient><linearGradient gradientTransform="matrix(0.8672 0.4979 0.4979 -0.8672 -3438.0923 7752.8726)" gradientUnits="userSpaceOnUse" id="SVGID_25_" node-id="119" spreadMethod="pad" x1="-202.963" x2="-202.963" y1="8329.637" y2="8316.509"><stop offset="0" stop-color="#4673bc"></stop><stop offset="0.652" stop-color="#6a94e0"></stop></linearGradient><linearGradient gradientUnits="userSpaceOnUse" id="SVGID_26_" node-id="125" spreadMethod="pad" x1="496.3303" x2="496.3303" y1="477.4362" y2="395.3351"><stop offset="0" stop-color="#445677"></stop><stop offset="1" stop-color="#293861"></stop></linearGradient><linearGradient gradientUnits="userSpaceOnUse" id="SVGID_27_" node-id="129" spreadMethod="pad" x1="477.8286" x2="477.8286" y1="416.773" y2="355.9865"><stop offset="0" stop-color="#fad96e"></stop><stop offset="1" stop-color="#ffb32c"></stop></linearGradient></defs><g node-id="402"><path d="M 483.47 200.66 C 445.10 230.95 362.73 234.47 302.30 198.44 C 241.87 162.41 130.30 167.06 100.08 233.31 C 69.86 299.56 137.27 364.64 112.86 412.29 C 88.45 459.94 7.10 527.34 62.88 608.69 C 118.66 690.04 189.48 669.31 232.10 661.14 C 316.27 645.01 421.89 776.81 540.72 677.27 C 609.19 619.92 711.16 719.36 750.89 595.91 C 783.67 494.05 665.22 456.41 700.92 387.88 C 738.88 315.00 731.59 228.64 690.46 186.82 C 652.16 147.87 549.71 148.36 483.47 200.66 Z" fill="url(#SVGID_1_)" fill-rule="nonzero" group-id="1" node-id="315" stroke="none" target-height="628.94" target-width="776.57" target-x="7.1" target-y="147.87"></path><path d="M 549.98 416.06 L 704.33 461.76 L 585.26 573.75 L 441.62 563.05 L 385.70 461.76 Z" fill="url(#SVGID_2_)" fill-rule="nonzero" group-id="1" node-id="317" stroke="none" target-height="157.69" target-width="318.63" target-x="385.7" target-y="416.06"></path><g node-id="405"><path d="M 116.08 403.77 C 116.08 403.77 115.86 403.20 115.56 403.81 C 112.86 409.30 88.41 468.77 86.47 514.67 C 86.47 514.67 82.39 541.04 116.58 540.69 C 145.12 540.40 144.36 516.09 144.26 507.90 C 143.87 474.68 116.08 403.77 116.08 403.77 Z" fill="url(#SVGID_3_)" fill-rule="nonzero" group-id="1,4" node-id="321" stroke="none" target-height="137.83997" target-width="62.729996" target-x="82.39" target-y="403.2"></path><g node-id="408"><path d="M 115.30 569.89 C 114.75 569.89 114.30 569.44 114.30 568.89 L 114.30 419.76 C 114.30 419.21 114.75 418.76 115.30 418.76 C 115.85 418.76 116.30 419.21 116.30 419.76 L 116.30 568.89 C 116.30 569.44 115.85 569.89 115.30 569.89 Z" fill="url(#SVGID_4_)" fill-rule="nonzero" group-id="1,4,7" node-id="325" stroke="none" target-height="151.13" target-width="2" target-x="114.3" target-y="418.76"></path></g></g><g node-id="406"><path d="M 616.93 361.01 C 616.93 361.01 616.79 360.64 616.60 361.04 C 614.86 364.57 599.12 402.87 597.87 432.42 C 597.87 432.42 595.24 449.40 617.26 449.18 C 635.64 449.00 635.15 433.34 635.08 428.07 C 634.82 406.67 616.93 361.01 616.93 361.01 Z" fill="url(#SVGID_5_)" fill-rule="nonzero" group-id="1,5" node-id="331" stroke="none" target-height="88.75998" target-width="40.400024" target-x="595.24" target-y="360.64"></path><g node-id="409"><path d="M 616.42 467.97 C 616.06 467.97 615.78 467.68 615.78 467.33 L 615.78 371.30 C 615.78 370.94 616.07 370.66 616.42 370.66 C 616.77 370.66 617.06 370.95 617.06 371.30 L 617.06 467.32 C 617.07 467.68 616.78 467.97 616.42 467.97 Z" fill="url(#SVGID_6_)" fill-rule="nonzero" group-id="1,5,8" node-id="335" stroke="none" target-height="97.31" target-width="1.289978" target-x="615.78" target-y="370.66"></path></g></g><g node-id="407"><path d="M 690.30 527.56 C 690.30 537.04 682.61 544.73 673.13 544.73 C 663.65 544.73 655.96 537.04 655.96 527.56 C 655.96 518.08 663.65 510.39 673.13 510.39 C 682.61 510.39 690.30 518.08 690.30 527.56 Z" fill="url(#SVGID_7_)" fill-rule="nonzero" group-id="1,6" node-id="341" stroke="none" target-height="34.339966" target-width="34.339966" target-x="655.96" target-y="510.39"></path><path d="M 673.19 569.99 C 672.90 569.99 672.66 569.75 672.66 569.46 L 672.66 515.25 C 672.66 514.96 672.90 514.72 673.19 514.72 C 673.48 514.72 673.72 514.96 673.72 515.25 L 673.72 569.46 C 673.72 569.75 673.48 569.99 673.19 569.99 Z" fill="url(#SVGID_8_)" fill-rule="nonzero" group-id="1,6" node-id="343" stroke="none" target-height="55.27002" target-width="1.0599976" target-x="672.66" target-y="514.72"></path></g><path d="M 479.71 116.67 C 479.71 135.86 464.15 151.42 444.96 151.42 C 425.77 151.42 410.21 135.86 410.21 116.67 C 410.21 97.48 425.77 81.92 444.96 81.92 C 464.15 81.92 479.71 97.48 479.71 116.67 Z" fill="url(#SVGID_9_)" fill-rule="nonzero" group-id="1" node-id="346" stroke="none" target-height="69.5" target-width="69.5" target-x="410.21" target-y="81.92"></path><path d="M 464.74 135.62 L 430.17 135.62 C 427.94 125.01 418.52 117.04 407.24 117.04 C 395.96 117.04 386.55 125.01 384.31 135.62 L 375.26 135.62 C 364.53 135.62 355.82 144.32 355.82 155.06 L 355.82 155.06 C 355.82 165.79 364.52 174.50 375.26 174.50 L 464.73 174.50 C 475.46 174.50 484.17 165.80 484.17 155.06 L 484.17 155.06 C 484.18 144.32 475.47 135.62 464.74 135.62 Z" fill="url(#SVGID_10_)" fill-rule="nonzero" group-id="1" node-id="348" stroke="none" target-height="57.46" target-width="128.35999" target-x="355.82" target-y="117.04"></path></g><g node-id="403"><path d="M 195.34 369.17 L 391.62 347.83 L 391.62 476.52 L 195.34 452.43 Z" fill="#c7d4e5" fill-rule="nonzero" group-id="2" node-id="353" stroke="none" target-height="128.69" target-width="196.28" target-x="195.34" target-y="347.83"></path><path d="M 585.28 369.17 L 391.62 347.83 L 391.62 476.52 L 585.28 448.99 Z" fill="url(#SVGID_11_)" fill-rule="nonzero" group-id="2" node-id="355" stroke="none" target-height="128.69" target-width="193.66003" target-x="391.62" target-y="347.83"></path><path d="M 391.62 620.34 L 195.34 576.18 L 195.34 369.17 L 391.62 394.63 Z" fill="url(#SVGID_12_)" fill-rule="nonzero" group-id="2" node-id="357" stroke="none" target-height="251.17001" target-width="196.28" target-x="195.34" target-y="369.17"></path><path d="M 585.28 369.17 L 585.28 573.54 L 391.62 620.34 L 391.62 394.63 Z" fill="url(#SVGID_13_)" fill-rule="nonzero" group-id="2" node-id="359" stroke="none" target-height="251.17001" target-width="193.66003" target-x="391.62" target-y="369.17"></path><path d="M 195.34 452.43 L 195.34 494.75 L 356.83 534.32 L 391.62 394.63 L 195.34 419.40 Z" fill="url(#SVGID_14_)" fill-rule="nonzero" group-id="2" node-id="361" stroke="none" target-height="139.69" target-width="196.28" target-x="195.34" target-y="394.63"></path><path d="M 585.28 494.75 L 428.38 534.32 L 391.62 394.63 L 585.28 453.12 Z" fill="#bbcbdd" fill-rule="nonzero" group-id="2" node-id="363" stroke="none" target-height="139.69" target-width="193.66003" target-x="391.62" target-y="394.63"></path><path d="M 635.35 462.66 L 435.79 506.70 L 391.80 394.53 L 585.46 369.07 Z" fill="url(#SVGID_15_)" fill-rule="nonzero" group-id="2" node-id="365" stroke="none" target-height="137.63" target-width="243.54999" target-x="391.8" target-y="369.07"></path><path d="M 635.16 462.76 L 435.60 506.80 L 391.62 394.63 L 585.27 369.17 Z" fill="url(#SVGID_16_)" fill-rule="nonzero" group-id="2" node-id="367" stroke="none" target-height="137.62997" target-width="243.53998" target-x="391.62" target-y="369.17"></path><path d="M 146.77 462.75 L 348.30 506.79 L 391.62 394.63 L 195.34 369.17 Z" fill="url(#SVGID_17_)" fill-rule="nonzero" group-id="2" node-id="369" stroke="none" target-height="137.62" target-width="244.84999" target-x="146.77" target-y="369.17"></path><path d="M 348.30 506.79 L 355.85 506.79 L 391.62 394.63 Z" fill="url(#SVGID_18_)" fill-rule="nonzero" group-id="2" node-id="371" stroke="none" target-height="112.16" target-width="43.320007" target-x="348.3" target-y="394.63"></path><path d="M 435.61 506.79 L 427.47 506.79 L 391.62 394.63 Z" fill="url(#SVGID_19_)" fill-rule="nonzero" group-id="2" node-id="373" stroke="none" target-height="112.16" target-width="43.98999" target-x="391.62" target-y="394.63"></path><path d="M 232.39 264.11 L 298.21 261.02 L 331.09 386.77 L 311.00 384.16 Z" fill="url(#SVGID_20_)" fill-rule="nonzero" group-id="2" node-id="375" stroke="none" target-height="125.75" target-width="98.7" target-x="232.39" target-y="261.02"></path><path d="M 352.25 389.47 L 331.04 254.98 L 378.45 247.32 L 367.19 391.40 Z" fill="url(#SVGID_21_)" fill-rule="nonzero" group-id="2" node-id="377" stroke="none" target-height="144.07999" target-width="47.410004" target-x="331.04" target-y="247.32"></path><path d="M 377.15 392.75 L 416.73 247.91 L 479.90 258.51 L 391.62 394.63 Z" fill="url(#SVGID_22_)" fill-rule="nonzero" group-id="2" node-id="379" stroke="none" target-height="146.72" target-width="102.75" target-x="377.15" target-y="247.91"></path></g><g node-id="404"><path d="M 537.39 425.37 C 537.39 425.37 543.44 424.44 545.54 433.40 C 550.37 434.64 555.59 437.14 558.70 439.36 C 561.81 441.58 565.12 439.70 565.67 438.34 C 562.07 434.79 553.91 421.40 544.77 416.41 C 539.43 422.63 537.39 425.37 537.39 425.37 Z" fill="url(#SVGID_23_)" fill-rule="nonzero" group-id="3" node-id="384" stroke="none" target-height="25.169983" target-width="28.279968" target-x="537.39" target-y="416.41"></path><path d="M 545.45 415.33 C 545.45 415.33 544.49 416.69 543.77 417.43 C 544.88 420.48 550.36 427.27 561.55 439.26 C 563.08 440.90 564.59 440.30 565.30 439.74 C 566.00 439.18 566.02 439.08 566.02 439.08 C 566.02 439.08 557.03 428.05 546.61 415.22 C 546.31 414.87 545.74 414.97 545.45 415.33 Z" fill="#d4e4fe" fill-rule="nonzero" group-id="3" node-id="386" stroke="none" target-height="26.029999" target-width="22.25" target-x="543.77" target-y="414.87"></path><path d="M 545.64 415.13 C 543.00 416.72 549.37 423.42 552.82 427.40 C 556.40 431.53 562.70 440.75 565.45 439.54 C 567.55 438.62 565.32 438.14 556.54 426.57 C 553.58 422.68 547.67 413.92 545.64 415.13 Z" fill="#ffffff" fill-rule="nonzero" group-id="3" node-id="388" stroke="none" target-height="26.829987" target-width="24.549988" target-x="543" target-y="413.92"></path><path d="M 498.59 395.89 C 498.59 395.89 508.25 395.52 511.36 401.03 C 514.47 406.54 514.58 421.76 512.86 433.02 C 512.05 439.08 511.36 443.79 511.36 443.79 L 539.94 423.12 L 546.84 432.03 C 546.84 432.03 512.97 470.95 499.75 463.65 C 489.24 457.85 481.58 402.45 481.58 402.45 L 498.59 395.89 Z" fill="url(#SVGID_24_)" fill-rule="nonzero" group-id="3" node-id="390" stroke="none" target-height="75.43002" target-width="65.26004" target-x="481.58" target-y="395.52"></path><path d="M 514.57 432.51 C 514.57 432.51 520.14 429.82 524.46 437.81 C 529.42 437.57 535.08 438.42 538.64 439.62 C 542.20 440.82 544.90 438.04 545.08 436.57 C 540.71 434.23 529.43 423.79 519.37 421.70 C 515.82 429.27 514.57 432.51 514.57 432.51 Z" fill="url(#SVGID_25_)" fill-rule="nonzero" group-id="3" node-id="392" stroke="none" target-height="19.119995" target-width="30.51001" target-x="514.57" target-y="421.7"></path><path d="M 519.74 420.47 C 519.74 420.47 519.17 422.07 518.66 422.99 C 520.51 425.59 527.52 430.49 541.35 438.69 C 543.24 439.81 544.54 438.79 545.07 438.04 C 545.60 437.29 545.60 437.19 545.60 437.19 C 545.60 437.19 534.13 429.26 520.82 420.03 C 520.44 419.77 519.92 420.03 519.74 420.47 Z" fill="#d4e4fe" fill-rule="nonzero" group-id="3" node-id="394" stroke="none" target-height="20.040009" target-width="26.940002" target-x="518.66" target-y="419.77"></path><path d="M 519.86 420.22 C 517.73 422.53 525.57 427.08 529.91 429.88 C 534.41 432.79 542.83 439.77 545.16 437.80 C 546.94 436.29 544.67 436.49 533.27 427.98 C 529.44 425.11 521.50 418.45 519.86 420.22 Z" fill="#ffffff" fill-rule="nonzero" group-id="3" node-id="396" stroke="none" target-height="21.319977" target-width="29.210022" target-x="517.73" target-y="418.45"></path><path d="M 495.31 395.34 C 495.31 395.34 502.69 403.86 496.86 427.62 C 491.03 451.38 490.82 451.65 490.82 451.65 L 516.75 429.11 L 525.49 438.02 C 525.49 438.02 502.87 467.60 500.76 469.95 C 496.31 474.90 474.31 489.26 471.09 457.10 C 468.44 430.68 467.14 409.68 467.14 409.68 L 495.31 395.34 Z" fill="url(#SVGID_26_)" fill-rule="nonzero" group-id="3" node-id="398" stroke="none" target-height="93.92001" target-width="58.349976" target-x="467.14" target-y="395.34"></path><path d="M 449.36 387.72 C 449.36 387.72 433.36 369.90 458.24 358.39 C 469.69 353.09 490.27 354.43 502.61 384.44 C 511.35 401.03 511.35 401.03 511.35 401.03 C 511.35 401.03 492.03 399.34 467.65 416.77 C 459.38 394.84 449.36 387.72 449.36 387.72 Z" fill="url(#SVGID_27_)" fill-rule="nonzero" group-id="3" node-id="400" stroke="none" target-height="63.679993" target-width="77.99002" target-x="433.36" target-y="353.09"></path></g></svg>