<?xml version="1.0" standalone="no"?><!DOCTYPE svg PUBLIC "-//W3C//DTD SVG 1.1//EN" "http://www.w3.org/Graphics/SVG/1.1/DTD/svg11.dtd"><svg height="800" node-id="1" sillyvg="true" template-height="800" template-width="800" version="1.1" viewBox="0 0 800 800" width="800" xmlns="http://www.w3.org/2000/svg" xmlns:xlink="http://www.w3.org/1999/xlink"><defs node-id="175"><linearGradient gradientUnits="userSpaceOnUse" id="SVGID_1_" node-id="13" spreadMethod="pad" x1="402.47" x2="402.47" y1="163.6171" y2="719.1088"><stop offset="0.00000009590021" stop-color="#f4f2fb"></stop><stop offset="1" stop-color="#e1eef5"></stop></linearGradient><linearGradient gradientUnits="userSpaceOnUse" id="SVGID_2_" node-id="17" spreadMethod="pad" x1="466.4533" x2="587.82" y1="633.8876" y2="423.6742"><stop offset="0.0746" stop-color="#b4c9db"></stop><stop offset="0.9134" stop-color="#eaeef8"></stop><stop offset="1" stop-color="#ecf0f9"></stop></linearGradient><linearGradient gradientUnits="userSpaceOnUse" id="SVGID_3_" node-id="23" spreadMethod="pad" x1="117.5518" x2="117.5518" y1="545.0063" y2="407.8317"><stop offset="0.2267" stop-color="#d0dceb"></stop><stop offset="0.7893" stop-color="#ecf1fb"></stop></linearGradient><linearGradient gradientUnits="userSpaceOnUse" id="SVGID_4_" node-id="28" spreadMethod="pad" x1="117.5537" x2="117.5537" y1="423.0634" y2="574.1967"><stop offset="0" stop-color="#ecf1fb"></stop><stop offset="0.818" stop-color="#b6c9dd"></stop></linearGradient><linearGradient gradientUnits="userSpaceOnUse" id="SVGID_5_" node-id="33" spreadMethod="pad" x1="618.6807" x2="618.6807" y1="453.4843" y2="365.1598"><stop offset="0.2267" stop-color="#d0dceb"></stop><stop offset="0.7893" stop-color="#ecf1fb"></stop></linearGradient><linearGradient gradientUnits="userSpaceOnUse" id="SVGID_6_" node-id="38" spreadMethod="pad" x1="618.6819" x2="618.6819" y1="374.9673" y2="472.2796"><stop offset="0" stop-color="#ecf1fb"></stop><stop offset="0.818" stop-color="#b6c9dd"></stop></linearGradient><linearGradient gradientUnits="userSpaceOnUse" id="SVGID_7_" node-id="43" spreadMethod="pad" x1="675.3906" x2="675.3906" y1="549.0307" y2="514.6997"><stop offset="0.2267" stop-color="#d0dceb"></stop><stop offset="0.7893" stop-color="#ecf1fb"></stop></linearGradient><linearGradient gradientUnits="userSpaceOnUse" id="SVGID_8_" node-id="47" spreadMethod="pad" x1="675.4512" x2="675.4512" y1="519.0345" y2="574.298"><stop offset="0" stop-color="#ecf1fb"></stop><stop offset="0.818" stop-color="#b6c9dd"></stop></linearGradient><linearGradient gradientUnits="userSpaceOnUse" id="SVGID_9_" node-id="51" spreadMethod="pad" x1="464.5988" x2="429.8445" y1="90.8777" y2="151.0739"><stop offset="0" stop-color="#ffdb80"></stop><stop offset="1" stop-color="#ffbb24"></stop></linearGradient><linearGradient gradientUnits="userSpaceOnUse" id="SVGID_10_" node-id="55" spreadMethod="pad" x1="422.2616" x2="422.2616" y1="121.3439" y2="178.7979"><stop offset="0" stop-color="#f9fafe"></stop><stop offset="1" stop-color="#e5edf7"></stop></linearGradient><linearGradient gradientUnits="userSpaceOnUse" id="SVGID_11_" node-id="60" spreadMethod="pad" x1="588.6624" x2="206.6612" y1="384.1273" y2="384.1273"><stop offset="0.15" stop-color="#afc5d8"></stop><stop offset="1" stop-color="#dfe8f9"></stop></linearGradient><linearGradient gradientUnits="userSpaceOnUse" id="SVGID_12_" node-id="64" spreadMethod="pad" x1="397.6618" x2="397.6618" y1="515.2374" y2="261.032"><stop offset="0" stop-color="#b6cadc"></stop><stop offset="0.8851" stop-color="#dfe8f9"></stop></linearGradient><linearGradient gradientUnits="userSpaceOnUse" id="SVGID_13_" node-id="69" spreadMethod="pad" x1="626.6478" x2="167.5681" y1="573.0757" y2="573.0757"><stop offset="0.15" stop-color="#afc5d8"></stop><stop offset="1" stop-color="#d1def0"></stop></linearGradient><linearGradient gradientUnits="userSpaceOnUse" id="SVGID_14_" node-id="73" spreadMethod="pad" x1="458.9789" x2="320.6516" y1="689.0151" y2="449.4251"><stop offset="0" stop-color="#c7d4e5"></stop><stop offset="0.6872" stop-color="#dfe8f9"></stop></linearGradient><linearGradient gradientUnits="userSpaceOnUse" id="SVGID_15_" node-id="77" spreadMethod="pad" x1="397.6618" x2="397.6618" y1="582.3486" y2="552.5507"><stop offset="0" stop-color="#b6cadc"></stop><stop offset="0.8851" stop-color="#dfe8f9"></stop></linearGradient><linearGradient gradientUnits="userSpaceOnUse" id="SVGID_16_" node-id="83" spreadMethod="pad" x1="413.1689" x2="398.0698" y1="374.1161" y2="359.017"><stop offset="0" stop-color="#b6cadc"></stop><stop offset="0.8851" stop-color="#dfe8f9"></stop></linearGradient><linearGradient gradientUnits="userSpaceOnUse" id="SVGID_17_" node-id="87" spreadMethod="pad" x1="452.0697" x2="357.0735" y1="426.4612" y2="331.465"><stop offset="0" stop-color="#b6cadc"></stop><stop offset="0.8851" stop-color="#dfe8f9"></stop></linearGradient><linearGradient gradientUnits="userSpaceOnUse" id="SVGID_18_" node-id="92" spreadMethod="pad" x1="231.6532" x2="231.6532" y1="569.0214" y2="489.8525"><stop offset="0" stop-color="#fad96e"></stop><stop offset="1" stop-color="#ffb32c"></stop></linearGradient><linearGradient gradientUnits="userSpaceOnUse" id="SVGID_19_" node-id="96" spreadMethod="pad" x1="232.751" x2="232.751" y1="476.3503" y2="501.4304"><stop offset="0" stop-color="#f4ae98"></stop><stop offset="1" stop-color="#fad1bb"></stop></linearGradient><linearGradient gradientUnits="userSpaceOnUse" id="SVGID_20_" node-id="100" spreadMethod="pad" x1="249.1665" x2="216.3899" y1="475.5973" y2="475.5973"><stop offset="0" stop-color="#f4b9a4"></stop><stop offset="0.652" stop-color="#fad1bb"></stop></linearGradient><linearGradient gradientUnits="userSpaceOnUse" id="SVGID_21_" node-id="104" spreadMethod="pad" x1="211.8793" x2="249.9328" y1="462.9278" y2="462.9278"><stop offset="0" stop-color="#4f5c7c"></stop><stop offset="1" stop-color="#274168"></stop></linearGradient><linearGradient gradientTransform="matrix(0.9901 -0.1406 0.1406 0.9901 163.597 -562.2953)" gradientUnits="userSpaceOnUse" id="SVGID_22_" node-id="108" spreadMethod="pad" x1="-118.5684" x2="-106.31" y1="1136.715" y2="1050.4023"><stop offset="0" stop-color="#fad96e"></stop><stop offset="1" stop-color="#ffa91f"></stop></linearGradient><linearGradient gradientTransform="matrix(-0.9901 -0.1406 -0.1406 0.9901 -7722.6558 -562.2953)" gradientUnits="userSpaceOnUse" id="SVGID_23_" node-id="112" spreadMethod="pad" x1="-8059.639" x2="-8047.381" y1="8.896" y2="-77.4167"><stop offset="0" stop-color="#fad96e"></stop><stop offset="1" stop-color="#ffa91f"></stop></linearGradient><linearGradient gradientTransform="matrix(0.9932 0.1167 -0.1167 0.9932 -121.7276 -284.2774)" gradientUnits="userSpaceOnUse" id="SVGID_24_" node-id="116" spreadMethod="pad" x1="427.6987" x2="427.6987" y1="736.8633" y2="701.441"><stop offset="0" stop-color="#f4ae98"></stop><stop offset="1" stop-color="#fad1bb"></stop></linearGradient><linearGradient gradientUnits="userSpaceOnUse" id="SVGID_25_" node-id="120" spreadMethod="pad" x1="203.3335" x2="203.3335" y1="561.8772" y2="485.3209"><stop offset="0" stop-color="#fad96e"></stop><stop offset="1" stop-color="#ffa91f"></stop></linearGradient><linearGradient gradientTransform="matrix(-0.9932 0.1167 0.1167 0.9932 4982.2148 -284.2774)" gradientUnits="userSpaceOnUse" id="SVGID_26_" node-id="124" spreadMethod="pad" x1="4795.3965" x2="4795.3965" y1="223.5768" y2="188.1545"><stop offset="0" stop-color="#f4ae98"></stop><stop offset="1" stop-color="#fad1bb"></stop></linearGradient><linearGradient gradientUnits="userSpaceOnUse" id="SVGID_27_" node-id="128" spreadMethod="pad" x1="-4600.088" x2="-4600.088" y1="561.8772" y2="485.3209"><stop offset="0" stop-color="#fad96e"></stop><stop offset="1" stop-color="#ffa91f"></stop></linearGradient><linearGradient gradientUnits="userSpaceOnUse" id="SVGID_28_" node-id="132" spreadMethod="pad" x1="231.6532" x2="231.6532" y1="540.4302" y2="590.7408"><stop offset="0" stop-color="#275c89"></stop><stop offset="1" stop-color="#013f7c"></stop></linearGradient><linearGradient gradientUnits="userSpaceOnUse" id="SVGID_29_" node-id="138" spreadMethod="pad" x1="7924.8994" x2="7907.089" y1="612.4536" y2="612.4536"><stop offset="0" stop-color="#f4b9a4"></stop><stop offset="0.652" stop-color="#fad1bb"></stop></linearGradient><linearGradient gradientUnits="userSpaceOnUse" id="SVGID_30_" node-id="142" spreadMethod="pad" x1="207.5042" x2="299.3856" y1="592.8234" y2="592.8234"><stop offset="0" stop-color="#18264b"></stop><stop offset="0.652" stop-color="#2d3c65"></stop></linearGradient><linearGradient gradientUnits="userSpaceOnUse" id="SVGID_31_" node-id="146" spreadMethod="pad" x1="186.7873" x2="186.7873" y1="622.7071" y2="603.801"><stop offset="0" stop-color="#4673bc"></stop><stop offset="0.652" stop-color="#6a94e0"></stop></linearGradient><linearGradient gradientUnits="userSpaceOnUse" id="SVGID_32_" node-id="152" spreadMethod="pad" x1="251.8964" x2="269.707" y1="612.4536" y2="612.4536"><stop offset="0" stop-color="#f4b9a4"></stop><stop offset="0.652" stop-color="#fad1bb"></stop></linearGradient><linearGradient gradientUnits="userSpaceOnUse" id="SVGID_33_" node-id="156" spreadMethod="pad" x1="167.2965" x2="259.178" y1="592.8234" y2="592.8234"><stop offset="0" stop-color="#445677"></stop><stop offset="1" stop-color="#293861"></stop></linearGradient><linearGradient gradientUnits="userSpaceOnUse" id="SVGID_34_" node-id="160" spreadMethod="pad" x1="279.8949" x2="279.8949" y1="622.7071" y2="603.801"><stop offset="0" stop-color="#4673bc"></stop><stop offset="0.652" stop-color="#6a94e0"></stop></linearGradient></defs><g node-id="494"><g node-id="495"><path d="M 485.73 204.97 C 447.36 235.26 364.99 238.78 304.56 202.75 C 244.13 166.72 132.56 171.37 102.34 237.62 C 72.12 303.87 139.53 368.95 115.12 416.60 C 90.71 464.25 9.36 531.65 65.14 613.00 C 120.92 694.35 191.74 673.62 234.36 665.45 C 318.53 649.32 424.15 781.12 542.98 681.58 C 611.45 624.23 713.42 723.67 753.15 600.22 C 785.93 498.36 667.48 460.72 703.18 392.19 C 741.14 319.31 733.85 232.95 692.72 191.13 C 654.41 152.17 551.97 152.67 485.73 204.97 Z" fill="url(#SVGID_1_)" fill-rule="nonzero" group-id="1,2" node-id="389" stroke="none" target-height="628.95" target-width="776.57" target-x="9.36" target-y="152.17"></path><path d="M 421.84 469.09 L 659.56 465.09 L 626.14 599.37 L 406.67 599.37 Z" fill="url(#SVGID_2_)" fill-rule="nonzero" group-id="1,2" node-id="391" stroke="none" target-height="134.28" target-width="252.88998" target-x="406.67" target-y="465.09"></path><g node-id="498"><path d="M 118.33 408.07 C 118.33 408.07 118.11 407.50 117.81 408.11 C 115.11 413.60 90.66 473.07 88.72 518.97 C 88.72 518.97 84.64 545.34 118.83 544.99 C 147.37 544.70 146.61 520.39 146.51 512.20 C 146.13 478.98 118.33 408.07 118.33 408.07 Z" fill="url(#SVGID_3_)" fill-rule="nonzero" group-id="1,2,5" node-id="395" stroke="none" target-height="137.84003" target-width="62.729996" target-x="84.64" target-y="407.5"></path><g node-id="504"><path d="M 117.55 574.20 C 117.00 574.20 116.55 573.75 116.55 573.20 L 116.55 424.06 C 116.55 423.51 117.00 423.06 117.55 423.06 C 118.10 423.06 118.55 423.51 118.55 424.06 L 118.55 573.20 C 118.55 573.75 118.11 574.20 117.55 574.20 Z" fill="url(#SVGID_4_)" fill-rule="nonzero" group-id="1,2,5,11" node-id="399" stroke="none" target-height="151.14001" target-width="2" target-x="116.55" target-y="423.06"></path></g></g><g node-id="499"><path d="M 619.18 365.32 C 619.18 365.32 619.04 364.95 618.85 365.35 C 617.11 368.88 601.37 407.18 600.12 436.73 C 600.12 436.73 597.49 453.71 619.51 453.49 C 637.89 453.31 637.40 437.65 637.33 432.38 C 637.08 410.97 619.18 365.32 619.18 365.32 Z" fill="url(#SVGID_5_)" fill-rule="nonzero" group-id="1,2,6" node-id="405" stroke="none" target-height="88.75998" target-width="40.400024" target-x="597.49" target-y="364.95"></path><g node-id="505"><path d="M 618.68 472.28 C 618.32 472.28 618.04 471.99 618.04 471.64 L 618.04 375.62 C 618.04 375.26 618.33 374.98 618.68 374.98 C 619.03 374.98 619.32 375.27 619.32 375.62 L 619.32 471.64 C 619.33 471.99 619.04 472.28 618.68 472.28 Z" fill="url(#SVGID_6_)" fill-rule="nonzero" group-id="1,2,6,12" node-id="409" stroke="none" target-height="97.29999" target-width="1.2900391" target-x="618.04" target-y="374.98"></path></g></g><g node-id="500"><path d="M 692.56 531.87 C 692.56 541.35 684.87 549.04 675.39 549.04 C 665.91 549.04 658.22 541.35 658.22 531.87 C 658.22 522.39 665.91 514.70 675.39 514.70 C 684.87 514.70 692.56 522.39 692.56 531.87 Z" fill="url(#SVGID_7_)" fill-rule="nonzero" group-id="1,2,7" node-id="415" stroke="none" target-height="34.339966" target-width="34.340027" target-x="658.22" target-y="514.7"></path><path d="M 675.45 574.30 C 675.16 574.30 674.92 574.06 674.92 573.77 L 674.92 519.56 C 674.92 519.27 675.16 519.03 675.45 519.03 C 675.74 519.03 675.98 519.27 675.98 519.56 L 675.98 573.77 C 675.98 574.06 675.74 574.30 675.45 574.30 Z" fill="url(#SVGID_8_)" fill-rule="nonzero" group-id="1,2,7" node-id="417" stroke="none" target-height="55.26996" target-width="1.0599976" target-x="674.92" target-y="519.03"></path></g><path d="M 481.97 120.98 C 481.97 140.17 466.41 155.73 447.22 155.73 C 428.03 155.73 412.47 140.17 412.47 120.98 C 412.47 101.79 428.03 86.23 447.22 86.23 C 466.41 86.23 481.97 101.79 481.97 120.98 Z" fill="url(#SVGID_9_)" fill-rule="nonzero" group-id="1,2" node-id="420" stroke="none" target-height="69.49999" target-width="69.5" target-x="412.47" target-y="86.23"></path><path d="M 467.00 139.93 L 432.43 139.93 C 430.20 129.32 420.78 121.35 409.50 121.35 C 398.22 121.35 388.81 129.32 386.57 139.93 L 377.52 139.93 C 366.79 139.93 358.08 148.63 358.08 159.37 L 358.08 159.37 C 358.08 170.10 366.78 178.81 377.52 178.81 L 467.00 178.81 C 477.73 178.81 486.44 170.11 486.44 159.37 L 486.44 159.37 C 486.43 148.63 477.73 139.93 467.00 139.93 Z" fill="url(#SVGID_10_)" fill-rule="nonzero" group-id="1,2" node-id="422" stroke="none" target-height="57.46" target-width="128.36002" target-x="358.08" target-y="121.35"></path></g><g node-id="496"><path d="M 588.66 515.24 L 206.66 515.24 L 206.66 280.26 C 206.66 265.22 218.86 253.02 233.90 253.02 L 561.42 253.02 C 576.46 253.02 588.66 265.22 588.66 280.26 L 588.66 515.24 Z" fill="url(#SVGID_11_)" fill-rule="nonzero" group-id="1,3" node-id="427" stroke="none" target-height="262.21997" target-width="381.99997" target-x="206.66" target-y="253.02"></path><path d="M 588.66 515.24 L 206.66 515.24 L 206.66 288.27 C 206.66 273.23 218.86 261.03 233.90 261.03 L 561.42 261.03 C 576.46 261.03 588.66 273.23 588.66 288.27 L 588.66 515.24 Z" fill="url(#SVGID_12_)" fill-rule="nonzero" group-id="1,3" node-id="429" stroke="none" target-height="254.20999" target-width="381.99997" target-x="206.66" target-y="261.03"></path><path d="M 534.21 497.11 L 261.11 497.11 C 242.65 497.11 227.69 482.15 227.69 463.69 L 227.69 311.99 C 227.69 293.53 242.65 278.57 261.11 278.57 L 534.21 278.57 C 552.67 278.57 567.63 293.53 567.63 311.99 L 567.63 463.68 C 567.63 482.14 552.67 497.11 534.21 497.11 Z" fill="#ffffff" fill-rule="nonzero" group-id="1,3" node-id="431" stroke="none" target-height="218.53998" target-width="339.94" target-x="227.69" target-y="278.57"></path><path d="M 623.08 579.22 L 590.58 529.91 L 204.75 529.91 L 171.88 578.48 C 161.13 596.27 172.37 616.25 184.90 616.25 L 609.85 616.25 C 622.34 616.25 632.22 596.95 623.08 579.22 Z" fill="url(#SVGID_13_)" fill-rule="nonzero" group-id="1,3" node-id="433" stroke="none" target-height="86.34003" target-width="471.08997" target-x="161.13" target-y="529.91"></path><path d="M 621.65 575.35 L 588.66 515.24 L 206.66 515.24 L 173.17 575.24 C 166.88 586.51 174.59 600.72 187.01 600.72 L 607.75 600.72 C 620.11 600.72 627.83 586.62 621.65 575.35 Z" fill="url(#SVGID_14_)" fill-rule="nonzero" group-id="1,3" node-id="435" stroke="none" target-height="85.47998" target-width="460.95" target-x="166.88" target-y="515.24"></path><path d="M 456.76 582.35 L 338.56 582.35 C 334.72 582.35 332.36 577.94 334.33 574.48 L 345.40 555.07 C 346.29 553.51 347.90 552.55 349.63 552.55 L 445.68 552.55 C 447.41 552.55 449.02 553.51 449.91 555.07 L 460.98 574.48 C 462.96 577.94 460.60 582.35 456.76 582.35 Z" fill="url(#SVGID_15_)" fill-rule="nonzero" group-id="1,3" node-id="437" stroke="none" target-height="29.799988" target-width="130.6" target-x="332.36" target-y="552.55"></path><path d="M 466.50 449.84 C 466.50 452.97 464.09 455.51 461.12 455.51 C 458.15 455.51 455.74 452.97 455.74 449.84 C 455.74 446.71 458.15 444.17 461.12 444.17 C 464.09 444.17 466.50 446.71 466.50 449.84 Z" fill="#ffffff" fill-rule="nonzero" group-id="1,3" node-id="439" stroke="none" target-height="11.339996" target-width="10.76001" target-x="455.74" target-y="444.17"></path><g node-id="501"><path d="M 416.30 366.57 C 416.30 360.68 411.51 355.89 405.62 355.89 C 399.73 355.89 394.94 360.68 394.94 366.57 C 394.94 372.46 399.73 377.25 405.62 377.25 C 411.51 377.25 416.30 372.46 416.30 366.57 Z" fill="url(#SVGID_16_)" fill-rule="nonzero" group-id="1,3,8" node-id="443" stroke="none" target-height="21.359985" target-width="21.359985" target-x="394.94" target-y="355.89"></path><path d="M 453.85 334.76 L 408.42 319.06 C 406.18 318.29 403.75 318.27 401.50 319.00 L 356.50 333.70 C 352.03 335.16 349.01 339.33 349.01 344.03 L 349.01 405.59 C 349.01 411.76 352.86 425.41 367.28 435.74 C 379.58 444.55 392.59 451.37 399.49 454.75 C 402.57 456.26 406.18 456.24 409.23 454.67 C 416.40 450.99 429.97 443.82 438.31 438.19 C 449.84 430.41 461.16 418.85 461.16 404.23 L 461.16 345.04 C 461.17 340.40 458.23 336.27 453.85 334.76 Z M 421.45 395.77 C 425.59 395.77 428.95 399.13 428.95 403.27 C 428.95 407.41 425.59 410.77 421.45 410.77 L 413.06 410.77 L 413.06 424.32 C 413.06 428.46 409.70 431.82 405.56 431.82 C 401.42 431.82 398.06 428.46 398.06 424.32 L 398.06 391.12 C 387.57 387.89 379.93 378.11 379.93 366.57 C 379.93 352.41 391.45 340.89 405.61 340.89 C 419.77 340.89 431.29 352.41 431.29 366.57 C 431.29 378.14 423.60 387.95 413.06 391.15 L 413.06 395.77 L 421.45 395.77 Z" fill="url(#SVGID_17_)" fill-rule="nonzero" group-id="1,3,8" node-id="445" stroke="none" target-height="137.99002" target-width="112.16" target-x="349.01" target-y="318.27"></path></g></g><g node-id="497"><path d="M 223.49 490.23 C 223.49 490.23 204.28 487.57 198.04 496.40 C 191.80 505.23 189.52 527.82 189.52 527.82 L 203.98 527.06 L 202.76 553.38 L 229.44 569.02 L 267.44 548.58 L 261.66 524.73 L 273.80 521.56 C 273.80 521.56 270.18 486.95 253.29 492.06 C 244.62 492.99 241.88 492.83 241.88 492.83 C 241.88 492.83 239.60 500.11 231.76 499.49 C 223.91 498.88 223.49 490.23 223.49 490.23 Z" fill="url(#SVGID_18_)" fill-rule="nonzero" group-id="1,4" node-id="451" stroke="none" target-height="82.07001" target-width="84.27998" target-x="189.52" target-y="486.95"></path><path d="M 225.40 479.35 L 221.41 497.15 C 221.22 497.99 221.66 498.84 222.45 499.16 C 224.51 500.00 228.64 501.43 232.89 501.43 C 237.29 501.43 241.45 499.02 243.36 497.73 C 244.02 497.29 244.29 496.46 244.04 495.71 L 237.94 477.55 C 237.66 476.72 236.82 476.23 235.96 476.38 L 226.81 478.00 C 226.11 478.12 225.56 478.65 225.40 479.35 Z" fill="url(#SVGID_19_)" fill-rule="nonzero" group-id="1,4" node-id="453" stroke="none" target-height="25.199982" target-width="23.069992" target-x="221.22" target-y="476.23"></path><path d="M 248.46 477.23 C 249.05 476.38 249.43 474.21 248.95 473.58 C 248.07 472.87 247.24 473.28 246.61 473.90 C 246.75 468.71 246.29 464.40 246.17 463.31 C 245.85 460.13 242.61 454.31 232.04 454.31 C 221.47 454.31 219.42 461.94 219.42 461.94 C 219.42 461.94 218.73 467.34 218.94 473.89 C 218.31 473.29 217.49 472.90 216.62 473.60 C 216.13 474.24 216.51 476.41 217.11 477.25 C 217.70 478.10 218.08 480.11 218.19 481.22 C 218.29 482.28 217.53 485.09 220.31 484.74 C 221.97 491.38 228.69 496.93 232.86 496.93 C 237.43 496.93 243.49 491.35 245.22 484.74 C 248.06 485.13 247.29 482.29 247.39 481.23 C 247.49 480.09 247.87 478.07 248.46 477.23 Z" fill="url(#SVGID_20_)" fill-rule="nonzero" group-id="1,4" node-id="455" stroke="none" target-height="42.619995" target-width="33.299988" target-x="216.13" target-y="454.31"></path><path d="M 239.66 452.03 C 239.66 452.03 237.60 445.53 229.69 447.09 C 221.78 448.64 221.25 452.38 218.14 452.53 C 212.84 452.78 208.61 459.38 215.40 466.37 C 218.43 469.48 215.87 470.82 217.31 473.57 C 218.75 476.32 218.74 479.01 218.74 479.01 C 218.74 479.01 221.35 473.94 221.50 470.12 C 221.57 468.21 223.60 468.44 228.35 468.87 C 233.10 469.29 239.32 468.20 239.91 464.97 C 241.31 471.59 242.93 468.60 244.71 469.60 C 246.49 470.61 246.60 478.60 246.60 478.60 C 246.60 478.60 246.92 472.72 248.16 471.40 C 249.18 469.23 251.19 460.70 248.92 458.63 C 246.63 456.57 248.54 449.93 239.66 452.03 Z" fill="url(#SVGID_21_)" fill-rule="nonzero" group-id="1,4" node-id="457" stroke="none" target-height="33.48001" target-width="42.58" target-x="208.61" target-y="445.53"></path><path d="M 201.55 493.31 C 207.14 491.45 214.72 492.70 215.03 505.24 C 215.34 517.78 203.05 537.77 207.45 544.72 C 211.91 551.77 221.45 561.77 227.51 567.47 C 226.10 574.17 222.29 579.80 222.29 579.80 C 222.29 579.80 199.93 569.48 190.19 559.15 C 180.45 548.82 185.37 525.12 189.88 508.26 C 193.29 495.55 201.55 493.31 201.55 493.31 Z" fill="url(#SVGID_22_)" fill-rule="nonzero" group-id="1,4" node-id="459" stroke="none" target-height="88.349976" target-width="47.059998" target-x="180.45" target-y="491.45"></path><path d="M 260.15 493.31 C 254.56 491.45 246.98 492.70 246.67 505.24 C 246.36 517.78 258.65 537.77 254.25 544.72 C 249.79 551.77 240.25 561.77 234.19 567.47 C 235.60 574.17 239.41 579.80 239.41 579.80 C 239.41 579.80 261.77 569.48 271.51 559.15 C 281.25 548.82 276.33 525.12 271.82 508.26 C 268.42 495.55 260.15 493.31 260.15 493.31 Z" fill="url(#SVGID_23_)" fill-rule="nonzero" group-id="1,4" node-id="461" stroke="none" target-height="88.349976" target-width="47.059998" target-x="234.19" target-y="491.45"></path><path d="M 210.81 490.83 C 210.72 490.51 212.33 478.65 212.49 476.27 C 212.65 473.89 214.82 471.76 216.12 469.74 C 217.41 467.72 215.93 466.83 219.76 465.23 C 223.59 463.63 226.19 462.29 226.72 463.13 C 227.24 463.97 226.76 464.38 226.76 464.38 C 226.76 464.38 229.06 464.87 227.04 466.74 C 225.02 468.61 223.37 471.28 222.74 472.94 C 224.61 471.30 225.54 470.26 225.50 472.43 C 225.46 474.60 225.39 475.74 223.54 478.04 C 221.69 480.34 222.06 482.96 221.41 485.09 C 220.76 487.22 218.81 490.28 215.87 492.83 C 212.93 495.37 211.00 496.76 211.00 496.76 L 210.81 490.83 Z" fill="url(#SVGID_24_)" fill-rule="nonzero" group-id="1,4" node-id="463" stroke="none" target-height="34.47" target-width="18.339996" target-x="210.72" target-y="462.29"></path><path d="M 209.73 485.32 L 222.30 489.77 C 222.30 489.77 218.82 570.53 190.90 561.11 C 180.54 555.29 184.52 536.30 189.10 526.34 C 192.58 518.78 209.73 485.32 209.73 485.32 Z" fill="url(#SVGID_25_)" fill-rule="nonzero" group-id="1,4" node-id="465" stroke="none" target-height="85.21002" target-width="41.76001" target-x="180.54" target-y="485.32"></path><path d="M 251.92 490.83 C 252.01 490.51 250.40 478.65 250.24 476.27 C 250.08 473.89 247.91 471.76 246.61 469.74 C 245.32 467.72 246.80 466.83 242.97 465.23 C 239.14 463.63 236.54 462.29 236.01 463.13 C 235.49 463.97 235.97 464.38 235.97 464.38 C 235.97 464.38 233.67 464.87 235.69 466.74 C 237.71 468.61 239.36 471.28 239.99 472.94 C 238.12 471.30 237.19 470.26 237.23 472.43 C 237.27 474.60 237.34 475.74 239.19 478.04 C 241.04 480.34 240.67 482.96 241.32 485.09 C 241.97 487.22 243.92 490.28 246.86 492.83 C 249.80 495.37 251.73 496.76 251.73 496.76 L 251.92 490.83 Z" fill="url(#SVGID_26_)" fill-rule="nonzero" group-id="1,4" node-id="467" stroke="none" target-height="34.47" target-width="18.339996" target-x="233.67" target-y="462.29"></path><path d="M 253.00 485.32 L 240.43 489.77 C 240.43 489.77 243.91 570.53 271.83 561.11 C 282.19 555.29 278.21 536.30 273.63 526.34 C 270.15 518.78 253.00 485.32 253.00 485.32 Z" fill="url(#SVGID_27_)" fill-rule="nonzero" group-id="1,4" node-id="469" stroke="none" target-height="85.21002" target-width="41.76001" target-x="240.43" target-y="485.32"></path><path d="M 204.27 590.74 L 258.56 590.74 C 261.02 590.74 263.22 588.88 264.07 586.07 L 275.01 550.07 C 276.43 545.40 273.59 540.43 269.50 540.43 L 193.82 540.43 C 189.77 540.43 186.93 545.31 188.28 549.97 L 198.73 585.97 C 199.56 588.83 201.78 590.74 204.27 590.74 Z" fill="url(#SVGID_28_)" fill-rule="nonzero" group-id="1,4" node-id="471" stroke="none" target-height="50.309998" target-width="89.5" target-x="186.93" target-y="540.43"></path><g node-id="502"><path d="M 202.10 607.30 C 202.10 607.30 201.26 605.45 200.62 605.25 C 199.98 605.05 190.69 604.68 187.30 603.80 C 183.91 602.92 174.15 601.53 169.96 605.49 C 166.32 608.94 165.11 617.00 170.66 621.64 C 172.74 623.45 174.79 623.98 182.50 623.62 C 190.21 623.26 201.39 623.34 203.84 619.77 C 203.76 613.86 202.10 607.30 202.10 607.30 Z" fill="#ffffff" fill-rule="nonzero" group-id="1,4,9" node-id="475" stroke="none" target-height="22.449951" target-width="38.729996" target-x="165.11" target-y="601.53"></path><path d="M 210.71 605.25 C 210.71 605.25 201.75 607.26 198.54 606.97 C 195.34 606.67 198.02 619.59 198.02 619.59 C 198.02 619.59 206.58 620.18 214.15 617.99 C 216.71 608.09 210.71 605.25 210.71 605.25 Z" fill="url(#SVGID_29_)" fill-rule="nonzero" group-id="1,4,9" node-id="477" stroke="none" target-height="14.929993" target-width="21.37001" target-x="195.34" target-y="605.25"></path><path d="M 207.50 604.78 L 212.16 619.27 C 212.16 619.27 312.29 606.08 297.98 573.59 C 286.02 546.42 207.50 604.78 207.50 604.78 Z" fill="url(#SVGID_30_)" fill-rule="nonzero" group-id="1,4,9" node-id="479" stroke="none" target-height="72.85004" target-width="104.79001" target-x="207.5" target-y="546.42"></path><path d="M 200.93 605.90 C 200.93 605.90 204.60 607.34 205.06 612.45 C 205.53 617.57 204.01 621.00 196.21 621.95 C 188.41 622.90 186.43 622.54 181.54 622.66 C 176.65 622.78 169.55 623.25 168.50 613.95 C 167.45 604.65 176.96 602.28 186.82 604.65 C 189.93 605.25 200.93 605.90 200.93 605.90 Z" fill="url(#SVGID_31_)" fill-rule="nonzero" group-id="1,4,9" node-id="481" stroke="none" target-height="20.96997" target-width="38.08" target-x="167.45" target-y="602.28"></path></g><g node-id="503"><path d="M 264.58 607.30 C 264.58 607.30 265.42 605.45 266.06 605.25 C 266.71 605.05 275.99 604.68 279.38 603.80 C 282.77 602.92 291.87 601.46 296.47 605.38 C 300.73 609.02 301.01 617.07 296.16 621.51 C 294.08 623.32 291.89 623.98 284.18 623.62 C 276.47 623.26 265.29 623.34 262.84 619.77 C 262.92 613.86 264.58 607.30 264.58 607.30 Z" fill="#ffffff" fill-rule="nonzero" group-id="1,4,10" node-id="486" stroke="none" target-height="22.519958" target-width="38.170013" target-x="262.84" target-y="601.46"></path><path d="M 255.97 605.25 C 255.97 605.25 264.93 607.26 268.14 606.97 C 271.34 606.67 268.66 619.59 268.66 619.59 C 268.66 619.59 260.10 620.18 252.53 617.99 C 249.97 608.09 255.97 605.25 255.97 605.25 Z" fill="url(#SVGID_32_)" fill-rule="nonzero" group-id="1,4,10" node-id="488" stroke="none" target-height="14.929993" target-width="21.369995" target-x="249.97" target-y="605.25"></path><path d="M 259.18 604.78 L 254.52 619.27 C 254.52 619.27 154.39 606.08 168.70 573.59 C 180.66 546.42 259.18 604.78 259.18 604.78 Z" fill="url(#SVGID_33_)" fill-rule="nonzero" group-id="1,4,10" node-id="490" stroke="none" target-height="72.85004" target-width="104.78999" target-x="154.39" target-y="546.42"></path><path d="M 265.75 605.90 C 265.75 605.90 262.08 607.34 261.62 612.45 C 261.15 617.57 262.67 621.00 270.47 621.95 C 278.27 622.90 280.25 622.54 285.14 622.66 C 290.03 622.78 297.13 623.25 298.18 613.95 C 299.23 604.65 289.72 602.28 279.86 604.65 C 276.75 605.25 265.75 605.90 265.75 605.90 Z" fill="url(#SVGID_34_)" fill-rule="nonzero" group-id="1,4,10" node-id="492" stroke="none" target-height="20.96997" target-width="38.080017" target-x="261.15" target-y="602.28"></path></g></g></g></svg>