<?xml version="1.0" standalone="no"?><!DOCTYPE svg PUBLIC "-//W3C//DTD SVG 1.1//EN" "http://www.w3.org/Graphics/SVG/1.1/DTD/svg11.dtd"><svg height="800" node-id="1" sillyvg="true" template-height="800" template-width="800" version="1.1" viewBox="0 0 800 800" width="800" xmlns="http://www.w3.org/2000/svg" xmlns:xlink="http://www.w3.org/1999/xlink"><defs node-id="208"><linearGradient gradientUnits="userSpaceOnUse" id="SVGID_1_" node-id="12" spreadMethod="pad" x1="399.0954" x2="399.0954" y1="159.3104" y2="714.802"><stop offset="0.00000009590021" stop-color="#f4f2fb"></stop><stop offset="1" stop-color="#e1eef5"></stop></linearGradient><linearGradient gradientUnits="userSpaceOnUse" id="SVGID_2_" node-id="16" spreadMethod="pad" x1="423.838" x2="659.2736" y1="651.0908" y2="415.6553"><stop offset="0.3619" stop-color="#b4c9db"></stop><stop offset="0.8978" stop-color="#ecf0f9"></stop></linearGradient><linearGradient gradientUnits="userSpaceOnUse" id="SVGID_3_" node-id="21" spreadMethod="pad" x1="114.1772" x2="114.1772" y1="540.6995" y2="403.525"><stop offset="0.2267" stop-color="#d0dceb"></stop><stop offset="0.7893" stop-color="#ecf1fb"></stop></linearGradient><linearGradient gradientUnits="userSpaceOnUse" id="SVGID_4_" node-id="26" spreadMethod="pad" x1="114.179" x2="114.179" y1="418.7567" y2="569.89"><stop offset="0" stop-color="#ecf1fb"></stop><stop offset="0.818" stop-color="#b6c9dd"></stop></linearGradient><linearGradient gradientUnits="userSpaceOnUse" id="SVGID_5_" node-id="31" spreadMethod="pad" x1="615.306" x2="615.306" y1="449.1776" y2="360.8531"><stop offset="0.2267" stop-color="#d0dceb"></stop><stop offset="0.7893" stop-color="#ecf1fb"></stop></linearGradient><linearGradient gradientUnits="userSpaceOnUse" id="SVGID_6_" node-id="36" spreadMethod="pad" x1="615.3072" x2="615.3072" y1="370.6605" y2="467.9728"><stop offset="0" stop-color="#ecf1fb"></stop><stop offset="0.818" stop-color="#b6c9dd"></stop></linearGradient><linearGradient gradientUnits="userSpaceOnUse" id="SVGID_7_" node-id="41" spreadMethod="pad" x1="672.0159" x2="672.0159" y1="544.7239" y2="510.393"><stop offset="0.2267" stop-color="#d0dceb"></stop><stop offset="0.7893" stop-color="#ecf1fb"></stop></linearGradient><linearGradient gradientUnits="userSpaceOnUse" id="SVGID_8_" node-id="45" spreadMethod="pad" x1="672.0765" x2="672.0765" y1="514.7277" y2="569.9913"><stop offset="0" stop-color="#ecf1fb"></stop><stop offset="0.818" stop-color="#b6c9dd"></stop></linearGradient><linearGradient gradientUnits="userSpaceOnUse" id="SVGID_9_" node-id="49" spreadMethod="pad" x1="461.2241" x2="426.4698" y1="86.571" y2="146.7671"><stop offset="0" stop-color="#ffdb80"></stop><stop offset="1" stop-color="#ffbb24"></stop></linearGradient><linearGradient gradientUnits="userSpaceOnUse" id="SVGID_10_" node-id="53" spreadMethod="pad" x1="418.8869" x2="418.8869" y1="117.0371" y2="174.4911"><stop offset="0" stop-color="#f9fafe"></stop><stop offset="1" stop-color="#e5edf7"></stop></linearGradient><linearGradient gradientUnits="userSpaceOnUse" id="SVGID_11_" node-id="57" spreadMethod="pad" x1="582.1573" x2="223.8499" y1="546.7707" y2="339.9018"><stop offset="0.15" stop-color="#afc5d8"></stop><stop offset="1" stop-color="#dfe8f9"></stop></linearGradient><linearGradient gradientUnits="userSpaceOnUse" id="SVGID_12_" node-id="61" spreadMethod="pad" x1="540.0204" x2="255.1648" y1="591.1751" y2="306.3195"><stop offset="0.15" stop-color="#b6cadc"></stop><stop offset="1" stop-color="#dfe8f9"></stop></linearGradient><linearGradient gradientUnits="userSpaceOnUse" id="SVGID_13_" node-id="66" spreadMethod="pad" x1="563.333" x2="423.6065" y1="463.7226" y2="383.0514"><stop offset="0.15" stop-color="#afc5d8"></stop><stop offset="1" stop-color="#dfe8f9"></stop></linearGradient><linearGradient gradientUnits="userSpaceOnUse" id="SVGID_14_" node-id="70" spreadMethod="pad" x1="372.6367" x2="264.3128" y1="527.3762" y2="464.8353"><stop offset="0.15" stop-color="#afc5d8"></stop><stop offset="1" stop-color="#dfe8f9"></stop></linearGradient><linearGradient gradientUnits="userSpaceOnUse" id="SVGID_15_" node-id="74" spreadMethod="pad" x1="380.7088" x2="352.5363" y1="454.9427" y2="438.6773"><stop offset="0.15" stop-color="#afc5d8"></stop><stop offset="1" stop-color="#dfe8f9"></stop></linearGradient><linearGradient gradientUnits="userSpaceOnUse" id="SVGID_16_" node-id="78" spreadMethod="pad" x1="458.3781" x2="404.4404" y1="422.9313" y2="391.7904"><stop offset="0.15" stop-color="#afc5d8"></stop><stop offset="1" stop-color="#dfe8f9"></stop></linearGradient><linearGradient gradientUnits="userSpaceOnUse" id="SVGID_17_" node-id="82" spreadMethod="pad" x1="364.8766" x2="313.9466" y1="407.8888" y2="378.4844"><stop offset="0.15" stop-color="#afc5d8"></stop><stop offset="1" stop-color="#dfe8f9"></stop></linearGradient><linearGradient gradientUnits="userSpaceOnUse" id="SVGID_18_" node-id="86" spreadMethod="pad" x1="390.1552" x2="336.6578" y1="367.945" y2="337.0583"><stop offset="0.15" stop-color="#afc5d8"></stop><stop offset="1" stop-color="#dfe8f9"></stop></linearGradient><linearGradient gradientUnits="userSpaceOnUse" id="SVGID_19_" node-id="90" spreadMethod="pad" x1="421.0796" x2="385.9186" y1="367.0047" y2="346.7045"><stop offset="0.15" stop-color="#afc5d8"></stop><stop offset="1" stop-color="#dfe8f9"></stop></linearGradient><linearGradient gradientUnits="userSpaceOnUse" id="SVGID_20_" node-id="95" spreadMethod="pad" x1="411.3969" x2="568.2944" y1="425.1747" y2="425.1747"><stop offset="0" stop-color="#ebf2fa"></stop><stop offset="0.5247" stop-color="#fdfeff"></stop></linearGradient><linearGradient gradientUnits="userSpaceOnUse" id="SVGID_21_" node-id="99" spreadMethod="pad" x1="244.2457" x2="392.2095" y1="495.5047" y2="495.5047"><stop offset="0" stop-color="#ebf2fa"></stop><stop offset="0.5247" stop-color="#fdfeff"></stop></linearGradient><linearGradient gradientUnits="userSpaceOnUse" id="SVGID_22_" node-id="103" spreadMethod="pad" x1="335.8215" x2="392.9437" y1="449.0367" y2="449.0367"><stop offset="0" stop-color="#ebf2fa"></stop><stop offset="0.5247" stop-color="#fdfeff"></stop></linearGradient><linearGradient gradientUnits="userSpaceOnUse" id="SVGID_23_" node-id="107" spreadMethod="pad" x1="397.1691" x2="458.7982" y1="410.3093" y2="410.3093"><stop offset="0" stop-color="#ebf2fa"></stop><stop offset="0.5247" stop-color="#fdfeff"></stop></linearGradient><linearGradient gradientUnits="userSpaceOnUse" id="SVGID_24_" node-id="111" spreadMethod="pad" x1="310.2767" x2="365.0627" y1="396.3949" y2="396.3949"><stop offset="0" stop-color="#ebf2fa"></stop><stop offset="0.5247" stop-color="#fdfeff"></stop></linearGradient><linearGradient gradientUnits="userSpaceOnUse" id="SVGID_25_" node-id="115" spreadMethod="pad" x1="339.5293" x2="382.9214" y1="356.4547" y2="356.4547"><stop offset="0" stop-color="#ebf2fa"></stop><stop offset="0.5247" stop-color="#fdfeff"></stop></linearGradient><linearGradient gradientUnits="userSpaceOnUse" id="SVGID_26_" node-id="119" spreadMethod="pad" x1="386.9441" x2="414.2244" y1="360.7273" y2="360.7273"><stop offset="0" stop-color="#ebf2fa"></stop><stop offset="0.5247" stop-color="#fdfeff"></stop></linearGradient><linearGradient gradientUnits="userSpaceOnUse" id="SVGID_27_" node-id="124" spreadMethod="pad" x1="578.1133" x2="578.1133" y1="572.6839" y2="493.5151"><stop offset="0" stop-color="#fad96e"></stop><stop offset="1" stop-color="#ffb32c"></stop></linearGradient><linearGradient gradientUnits="userSpaceOnUse" id="SVGID_28_" node-id="128" spreadMethod="pad" x1="579.2112" x2="579.2112" y1="480.0128" y2="505.093"><stop offset="0" stop-color="#f4ae98"></stop><stop offset="1" stop-color="#fad1bb"></stop></linearGradient><linearGradient gradientUnits="userSpaceOnUse" id="SVGID_29_" node-id="132" spreadMethod="pad" x1="595.6266" x2="562.85" y1="479.2599" y2="479.2599"><stop offset="0" stop-color="#f4b9a4"></stop><stop offset="0.652" stop-color="#fad1bb"></stop></linearGradient><linearGradient gradientUnits="userSpaceOnUse" id="SVGID_30_" node-id="136" spreadMethod="pad" x1="558.3394" x2="596.3929" y1="466.5904" y2="466.5904"><stop offset="0" stop-color="#4f5c7c"></stop><stop offset="1" stop-color="#274168"></stop></linearGradient><linearGradient gradientTransform="matrix(0.9901 -0.1406 0.1406 0.9901 12.1386 -672.1913)" gradientUnits="userSpaceOnUse" id="SVGID_31_" node-id="140" spreadMethod="pad" x1="358.4353" x2="370.6938" y1="1319.1589" y2="1232.8462"><stop offset="0" stop-color="#fad96e"></stop><stop offset="1" stop-color="#ffa91f"></stop></linearGradient><linearGradient gradientTransform="matrix(-0.9901 -0.1406 -0.1406 0.9901 -9277.9951 -672.1913)" gradientUnits="userSpaceOnUse" id="SVGID_32_" node-id="144" spreadMethod="pad" x1="-9958.512" x2="-9946.253" y1="-146.0904" y2="-232.4031"><stop offset="0" stop-color="#fad96e"></stop><stop offset="1" stop-color="#ffa91f"></stop></linearGradient><linearGradient gradientTransform="matrix(0.9932 0.1167 -0.1167 0.9932 -8.8799 -177.7228)" gradientUnits="userSpaceOnUse" id="SVGID_33_" node-id="148" spreadMethod="pad" x1="647.7053" x2="647.7053" y1="607.4083" y2="571.986"><stop offset="0" stop-color="#f4ae98"></stop><stop offset="1" stop-color="#fad1bb"></stop></linearGradient><linearGradient gradientUnits="userSpaceOnUse" id="SVGID_34_" node-id="152" spreadMethod="pad" x1="549.7936" x2="549.7936" y1="565.5398" y2="488.9835"><stop offset="0" stop-color="#fad96e"></stop><stop offset="1" stop-color="#ffa91f"></stop></linearGradient><linearGradient gradientTransform="matrix(-0.9932 0.1167 0.1167 0.9932 3162.5696 -177.7228)" gradientUnits="userSpaceOnUse" id="SVGID_35_" node-id="156" spreadMethod="pad" x1="2632.0862" x2="2632.0862" y1="374.2062" y2="338.7839"><stop offset="0" stop-color="#f4ae98"></stop><stop offset="1" stop-color="#fad1bb"></stop></linearGradient><linearGradient gradientUnits="userSpaceOnUse" id="SVGID_36_" node-id="160" spreadMethod="pad" x1="-2546.8303" x2="-2546.8303" y1="565.5398" y2="488.9835"><stop offset="0" stop-color="#fad96e"></stop><stop offset="1" stop-color="#ffa91f"></stop></linearGradient><linearGradient gradientUnits="userSpaceOnUse" id="SVGID_37_" node-id="164" spreadMethod="pad" x1="578.1133" x2="578.1133" y1="544.0928" y2="594.4034"><stop offset="0" stop-color="#275c89"></stop><stop offset="1" stop-color="#013f7c"></stop></linearGradient><linearGradient gradientUnits="userSpaceOnUse" id="SVGID_38_" node-id="170" spreadMethod="pad" x1="9978.157" x2="9960.347" y1="616.1161" y2="616.1161"><stop offset="0" stop-color="#f4b9a4"></stop><stop offset="0.652" stop-color="#fad1bb"></stop></linearGradient><linearGradient gradientUnits="userSpaceOnUse" id="SVGID_39_" node-id="174" spreadMethod="pad" x1="553.9643" x2="645.8458" y1="596.486" y2="596.486"><stop offset="0" stop-color="#18264b"></stop><stop offset="0.652" stop-color="#2d3c65"></stop></linearGradient><linearGradient gradientUnits="userSpaceOnUse" id="SVGID_40_" node-id="178" spreadMethod="pad" x1="533.2474" x2="533.2474" y1="626.3697" y2="607.4636"><stop offset="0" stop-color="#4673bc"></stop><stop offset="0.652" stop-color="#6a94e0"></stop></linearGradient><linearGradient gradientUnits="userSpaceOnUse" id="SVGID_41_" node-id="184" spreadMethod="pad" x1="598.3565" x2="616.1671" y1="616.1161" y2="616.1161"><stop offset="0" stop-color="#f4b9a4"></stop><stop offset="0.652" stop-color="#fad1bb"></stop></linearGradient><linearGradient gradientUnits="userSpaceOnUse" id="SVGID_42_" node-id="188" spreadMethod="pad" x1="513.7567" x2="605.6381" y1="596.486" y2="596.486"><stop offset="0" stop-color="#445677"></stop><stop offset="1" stop-color="#293861"></stop></linearGradient><linearGradient gradientUnits="userSpaceOnUse" id="SVGID_43_" node-id="192" spreadMethod="pad" x1="626.355" x2="626.355" y1="626.3697" y2="607.4636"><stop offset="0" stop-color="#4673bc"></stop><stop offset="0.652" stop-color="#6a94e0"></stop></linearGradient></defs><g node-id="593"><g node-id="594"><path d="M 482.35 200.66 C 443.98 230.95 361.61 234.47 301.18 198.44 C 240.75 162.41 129.18 167.06 98.96 233.31 C 68.74 299.56 136.15 364.64 111.74 412.29 C 87.33 459.94 5.98 527.34 61.77 608.69 C 117.56 690.04 188.37 669.31 230.99 661.14 C 315.16 645.01 420.78 776.81 539.61 677.27 C 608.08 619.92 710.05 719.36 749.78 595.91 C 782.56 494.05 664.11 456.41 699.81 387.88 C 737.77 315.00 730.48 228.64 689.35 186.82 C 651.04 147.87 548.60 148.36 482.35 200.66 Z" fill="url(#SVGID_1_)" fill-rule="nonzero" group-id="1,2" node-id="474" stroke="none" target-height="628.94" target-width="776.58" target-x="5.98" target-y="147.87"></path><path d="M 386.70 613.95 C 391.41 614.24 644.52 621.46 644.52 621.46 L 700.03 456.40 L 446.85 437.04 L 386.70 613.95 Z" fill="url(#SVGID_2_)" fill-rule="nonzero" group-id="1,2" node-id="476" stroke="none" target-height="184.42001" target-width="313.33002" target-x="386.7" target-y="437.04"></path><g node-id="598"><path d="M 114.96 403.77 C 114.96 403.77 114.74 403.20 114.44 403.81 C 111.74 409.30 87.29 468.77 85.35 514.67 C 85.35 514.67 81.27 541.04 115.46 540.69 C 144.00 540.40 143.24 516.09 143.14 507.90 C 142.76 474.68 114.96 403.77 114.96 403.77 Z" fill="url(#SVGID_3_)" fill-rule="nonzero" group-id="1,2,6" node-id="480" stroke="none" target-height="137.83997" target-width="62.730003" target-x="81.27" target-y="403.2"></path><g node-id="603"><path d="M 114.18 569.89 C 113.63 569.89 113.18 569.44 113.18 568.89 L 113.18 419.76 C 113.18 419.21 113.63 418.76 114.18 418.76 C 114.73 418.76 115.18 419.21 115.18 419.76 L 115.18 568.89 C 115.18 569.44 114.73 569.89 114.18 569.89 Z" fill="url(#SVGID_4_)" fill-rule="nonzero" group-id="1,2,6,11" node-id="484" stroke="none" target-height="151.13" target-width="2" target-x="113.18" target-y="418.76"></path></g></g><g node-id="599"><path d="M 615.81 361.01 C 615.81 361.01 615.67 360.64 615.48 361.04 C 613.74 364.57 598.00 402.87 596.75 432.42 C 596.75 432.42 594.12 449.40 616.14 449.18 C 634.52 449.00 634.03 433.34 633.96 428.07 C 633.71 406.67 615.81 361.01 615.81 361.01 Z" fill="url(#SVGID_5_)" fill-rule="nonzero" group-id="1,2,7" node-id="490" stroke="none" target-height="88.75998" target-width="40.400024" target-x="594.12" target-y="360.64"></path><g node-id="604"><path d="M 615.31 467.97 C 614.95 467.97 614.67 467.68 614.67 467.33 L 614.67 371.30 C 614.67 370.94 614.96 370.66 615.31 370.66 C 615.66 370.66 615.95 370.95 615.95 371.30 L 615.95 467.32 C 615.95 467.68 615.66 467.97 615.31 467.97 Z" fill="url(#SVGID_6_)" fill-rule="nonzero" group-id="1,2,7,12" node-id="494" stroke="none" target-height="97.31" target-width="1.2800293" target-x="614.67" target-y="370.66"></path></g></g><g node-id="600"><path d="M 689.19 527.56 C 689.19 537.04 681.50 544.73 672.02 544.73 C 662.54 544.73 654.85 537.04 654.85 527.56 C 654.85 518.08 662.54 510.39 672.02 510.39 C 681.50 510.39 689.19 518.08 689.19 527.56 Z" fill="url(#SVGID_7_)" fill-rule="nonzero" group-id="1,2,8" node-id="500" stroke="none" target-height="34.339966" target-width="34.340027" target-x="654.85" target-y="510.39"></path><path d="M 672.08 569.99 C 671.79 569.99 671.55 569.75 671.55 569.46 L 671.55 515.25 C 671.55 514.96 671.79 514.72 672.08 514.72 C 672.37 514.72 672.61 514.96 672.61 515.25 L 672.61 569.46 C 672.61 569.75 672.37 569.99 672.08 569.99 Z" fill="url(#SVGID_8_)" fill-rule="nonzero" group-id="1,2,8" node-id="502" stroke="none" target-height="55.27002" target-width="1.0599976" target-x="671.55" target-y="514.72"></path></g><path d="M 478.60 116.67 C 478.60 135.86 463.04 151.42 443.85 151.42 C 424.66 151.42 409.10 135.86 409.10 116.67 C 409.10 97.48 424.66 81.92 443.85 81.92 C 463.04 81.92 478.60 97.48 478.60 116.67 Z" fill="url(#SVGID_9_)" fill-rule="nonzero" group-id="1,2" node-id="505" stroke="none" target-height="69.5" target-width="69.5" target-x="409.1" target-y="81.92"></path><path d="M 463.62 135.62 L 429.05 135.62 C 426.82 125.01 417.40 117.04 406.12 117.04 C 394.84 117.04 385.43 125.01 383.19 135.62 L 374.14 135.62 C 363.41 135.62 354.70 144.32 354.70 155.06 L 354.70 155.06 C 354.70 165.79 363.40 174.50 374.14 174.50 L 463.61 174.50 C 474.34 174.50 483.05 165.80 483.05 155.06 L 483.05 155.06 C 483.06 144.32 474.36 135.62 463.62 135.62 Z" fill="url(#SVGID_10_)" fill-rule="nonzero" group-id="1,2" node-id="507" stroke="none" target-height="57.46" target-width="128.35999" target-x="354.7" target-y="117.04"></path></g><path d="M 609.83 443.34 C 609.83 557.57 517.23 650.17 403.00 650.17 C 288.77 650.17 196.17 557.57 196.17 443.34 C 196.17 329.11 288.77 236.51 403.00 236.51 C 517.23 236.51 609.83 329.11 609.83 443.34 Z" fill="url(#SVGID_11_)" fill-rule="nonzero" group-id="1" node-id="510" stroke="none" target-height="413.65997" target-width="413.66003" target-x="196.17" target-y="236.51"></path><path d="M 599.01 448.75 C 599.01 559.99 508.83 650.17 397.59 650.17 C 286.35 650.17 196.17 559.99 196.17 448.75 C 196.17 337.51 286.35 247.33 397.59 247.33 C 508.83 247.33 599.01 337.51 599.01 448.75 Z" fill="url(#SVGID_12_)" fill-rule="nonzero" group-id="1" node-id="512" stroke="none" target-height="402.83997" target-width="402.84003" target-x="196.17" target-y="247.33"></path><path d="M 520.03 484.41 C 515.34 484.41 510.58 483.80 505.84 482.51 L 449.69 467.29 C 435.42 463.42 423.62 454.18 416.44 441.26 C 412.34 433.88 415.00 424.58 422.37 420.48 C 429.75 416.38 439.05 419.04 443.15 426.41 C 446.29 432.06 451.45 436.10 457.69 437.79 L 513.84 453.01 C 526.47 456.43 539.53 448.94 542.95 436.31 C 546.37 423.68 538.88 410.62 526.25 407.20 L 470.10 392.00 C 463.20 390.13 455.89 391.45 450.07 395.62 C 443.21 400.53 433.66 398.95 428.75 392.09 C 423.84 385.23 425.42 375.68 432.28 370.77 C 445.60 361.24 462.29 358.23 478.09 362.51 L 534.24 377.73 C 563.13 385.56 580.27 415.44 572.44 444.33 C 565.89 468.47 543.94 484.41 520.03 484.41 Z" fill="url(#SVGID_13_)" fill-rule="nonzero" group-id="1,3" node-id="516" stroke="none" target-height="126.17999" target-width="167.93002" target-x="412.34" target-y="358.23"></path><path d="M 298.52 568.46 C 284.15 568.46 269.81 562.81 259.15 551.59 C 238.53 529.89 239.41 495.46 261.11 474.84 L 303.28 434.77 C 313.99 424.59 328.03 419.30 342.80 419.88 C 351.23 420.21 357.80 427.31 357.47 435.74 C 357.14 444.17 350.02 450.74 341.61 450.41 C 335.15 450.15 329.02 452.47 324.33 456.92 L 282.16 496.99 C 272.68 506.00 272.29 521.05 281.30 530.54 C 290.31 540.02 305.36 540.41 314.85 531.40 L 357.02 491.33 C 362.21 486.40 364.87 479.48 364.34 472.33 C 363.71 463.91 370.02 456.58 378.43 455.95 C 386.86 455.32 394.18 461.63 394.81 470.04 C 396.03 486.37 389.93 502.21 378.07 513.48 L 335.90 553.55 C 325.42 563.51 311.96 568.46 298.52 568.46 Z" fill="url(#SVGID_14_)" fill-rule="nonzero" group-id="1,3" node-id="518" stroke="none" target-height="149.16003" target-width="157.5" target-x="238.53" target-y="419.3"></path><path d="M 346.70 476.30 C 344.38 476.30 342.07 475.43 340.28 473.68 C 336.66 470.14 336.61 464.33 340.15 460.72 L 380.00 420.07 C 383.54 416.46 389.35 416.40 392.96 419.94 C 396.58 423.48 396.63 429.29 393.09 432.90 L 353.24 473.54 C 351.45 475.38 349.07 476.30 346.70 476.30 Z" fill="url(#SVGID_15_)" fill-rule="nonzero" group-id="1,3" node-id="520" stroke="none" target-height="59.899994" target-width="60.02002" target-x="336.61" target-y="416.4"></path><path d="M 453.64 421.99 C 452.92 421.99 452.18 421.90 451.45 421.72 L 407.00 410.81 C 402.08 409.60 399.08 404.64 400.28 399.72 C 401.49 394.80 406.44 391.79 411.37 393.00 L 455.81 403.91 C 460.73 405.12 463.73 410.08 462.53 415.00 C 461.51 419.19 457.76 421.99 453.64 421.99 Z" fill="url(#SVGID_16_)" fill-rule="nonzero" group-id="1,3" node-id="522" stroke="none" target-height="30.199982" target-width="64.650024" target-x="399.08" target-y="391.79"></path><path d="M 355.59 412.25 C 353.97 412.25 352.33 411.91 350.76 411.20 L 318.39 396.51 C 312.50 393.84 309.89 386.89 312.56 381.00 C 315.23 375.11 322.18 372.50 328.07 375.17 L 360.44 389.86 C 366.33 392.53 368.94 399.48 366.27 405.37 C 364.31 409.69 360.05 412.25 355.59 412.25 Z" fill="url(#SVGID_17_)" fill-rule="nonzero" group-id="1,3" node-id="524" stroke="none" target-height="39.75" target-width="59.049988" target-x="309.89" target-y="372.5"></path><path d="M 373.80 384.58 C 369.54 384.58 365.43 382.24 363.36 378.19 L 342.59 337.48 C 339.65 331.72 341.94 324.66 347.70 321.72 C 353.47 318.78 360.52 321.07 363.46 326.83 L 384.23 367.54 C 387.17 373.30 384.88 380.36 379.12 383.30 C 377.41 384.16 375.59 384.58 373.80 384.58 Z" fill="url(#SVGID_18_)" fill-rule="nonzero" group-id="1,3" node-id="526" stroke="none" target-height="65.79999" target-width="47.52002" target-x="339.65" target-y="318.78"></path><path d="M 405.66 381.97 C 400.02 381.97 395.05 377.88 394.11 372.13 L 389.75 345.33 C 388.71 338.94 393.05 332.93 399.43 331.89 C 405.81 330.85 411.83 335.19 412.87 341.57 L 417.23 368.37 C 418.27 374.76 413.93 380.77 407.55 381.81 C 406.92 381.92 406.29 381.97 405.66 381.97 Z" fill="url(#SVGID_19_)" fill-rule="nonzero" group-id="1,3" node-id="528" stroke="none" target-height="51.119995" target-width="29.559998" target-x="388.71" target-y="330.85"></path><path d="M 514.98 485.95 C 510.38 485.95 505.70 485.35 501.05 484.09 L 445.93 469.15 C 431.93 465.35 420.33 456.28 413.28 443.60 C 409.26 436.36 411.86 427.23 419.11 423.20 C 426.35 419.17 435.48 421.78 439.51 429.03 C 442.59 434.57 447.66 438.54 453.78 440.20 L 508.90 455.14 C 521.30 458.50 534.12 451.15 537.48 438.75 C 540.84 426.35 533.49 413.53 521.09 410.17 L 465.97 395.23 C 459.19 393.39 452.02 394.69 446.30 398.78 C 439.56 403.60 430.19 402.05 425.37 395.31 C 420.55 388.57 422.10 379.20 428.84 374.38 C 441.91 365.02 458.30 362.07 473.81 366.27 L 528.93 381.21 C 557.29 388.90 574.11 418.23 566.43 446.59 C 560.01 470.30 538.45 485.95 514.98 485.95 Z" fill="url(#SVGID_20_)" fill-rule="nonzero" group-id="1,4" node-id="533" stroke="none" target-height="123.880005" target-width="164.84998" target-x="409.26" target-y="362.07"></path><path d="M 297.53 568.46 C 283.42 568.46 269.34 562.91 258.88 551.90 C 238.64 530.60 239.50 496.80 260.80 476.55 L 302.20 437.21 C 312.72 427.22 326.50 422.02 340.99 422.59 C 349.27 422.91 355.72 429.89 355.39 438.16 C 355.07 446.44 348.08 452.89 339.82 452.56 C 333.48 452.31 327.46 454.58 322.86 458.95 L 281.46 498.29 C 272.15 507.14 271.77 521.91 280.62 531.22 C 289.47 540.53 304.24 540.91 313.55 532.06 L 354.95 492.72 C 360.04 487.88 362.66 481.08 362.13 474.07 C 361.51 465.81 367.71 458.61 375.97 457.99 C 384.24 457.37 391.43 463.57 392.05 471.83 C 393.25 487.86 387.26 503.41 375.62 514.47 L 334.22 553.81 C 323.93 563.60 310.72 568.46 297.53 568.46 Z" fill="url(#SVGID_21_)" fill-rule="nonzero" group-id="1,4" node-id="535" stroke="none" target-height="146.44003" target-width="154.61" target-x="238.64" target-y="422.02"></path><path d="M 344.82 477.99 C 342.55 477.99 340.27 477.13 338.52 475.42 C 334.97 471.94 334.91 466.24 338.39 462.69 L 377.51 422.79 C 380.99 419.24 386.69 419.18 390.24 422.66 C 393.79 426.14 393.85 431.84 390.37 435.39 L 351.25 475.29 C 349.49 477.08 347.15 477.99 344.82 477.99 Z" fill="url(#SVGID_22_)" fill-rule="nonzero" group-id="1,4" node-id="537" stroke="none" target-height="58.809998" target-width="58.940002" target-x="334.91" target-y="419.18"></path><path d="M 449.80 424.67 C 449.09 424.67 448.37 424.59 447.65 424.41 L 404.02 413.70 C 399.19 412.51 396.24 407.64 397.43 402.81 C 398.61 397.98 403.48 395.03 408.32 396.22 L 451.95 406.93 C 456.78 408.12 459.73 412.99 458.54 417.82 C 457.53 421.92 453.85 424.67 449.80 424.67 Z" fill="url(#SVGID_23_)" fill-rule="nonzero" group-id="1,4" node-id="539" stroke="none" target-height="29.640015" target-width="63.49002" target-x="396.24" target-y="395.03"></path><path d="M 353.55 415.11 C 351.96 415.11 350.35 414.78 348.81 414.08 L 317.03 399.66 C 311.25 397.04 308.68 390.22 311.31 384.44 C 313.93 378.66 320.75 376.09 326.53 378.72 L 358.31 393.14 C 364.09 395.76 366.66 402.58 364.03 408.36 C 362.11 412.60 357.93 415.11 353.55 415.11 Z" fill="url(#SVGID_24_)" fill-rule="nonzero" group-id="1,4" node-id="541" stroke="none" target-height="39.01999" target-width="57.98001" target-x="308.68" target-y="376.09"></path><path d="M 371.43 387.94 C 367.24 387.94 363.21 385.65 361.18 381.66 L 340.79 341.69 C 337.90 336.03 340.15 329.11 345.81 326.22 C 351.47 323.33 358.39 325.58 361.28 331.24 L 381.67 371.21 C 384.56 376.87 382.31 383.79 376.65 386.68 C 374.97 387.54 373.19 387.94 371.43 387.94 Z" fill="url(#SVGID_25_)" fill-rule="nonzero" group-id="1,4" node-id="543" stroke="none" target-height="64.610016" target-width="46.660004" target-x="337.9" target-y="323.33"></path><path d="M 402.71 385.38 C 397.17 385.38 392.29 381.37 391.37 375.72 L 387.09 349.41 C 386.07 343.14 390.33 337.23 396.59 336.21 C 402.85 335.19 408.77 339.45 409.79 345.72 L 414.07 372.03 C 415.09 378.30 410.83 384.21 404.57 385.23 C 403.94 385.33 403.32 385.38 402.71 385.38 Z" fill="url(#SVGID_26_)" fill-rule="nonzero" group-id="1,4" node-id="545" stroke="none" target-height="50.190002" target-width="29.019989" target-x="386.07" target-y="335.19"></path><path d="M 569.95 493.89 C 569.95 493.89 550.74 491.23 544.50 500.06 C 538.26 508.89 535.98 531.48 535.98 531.48 L 550.44 530.72 L 549.22 557.04 L 575.90 572.68 L 613.90 552.24 L 608.12 528.39 L 620.26 525.22 C 620.26 525.22 616.64 490.61 599.75 495.72 C 591.08 496.65 588.34 496.49 588.34 496.49 C 588.34 496.49 586.06 503.77 578.22 503.15 C 570.37 502.54 569.95 493.89 569.95 493.89 Z" fill="url(#SVGID_27_)" fill-rule="nonzero" group-id="1,5" node-id="550" stroke="none" target-height="82.07001" target-width="84.28003" target-x="535.98" target-y="490.61"></path><path d="M 571.86 483.01 L 567.87 500.81 C 567.68 501.65 568.12 502.50 568.91 502.82 C 570.97 503.66 575.10 505.09 579.35 505.09 C 583.75 505.09 587.91 502.68 589.82 501.39 C 590.48 500.95 590.75 500.12 590.50 499.37 L 584.40 481.21 C 584.12 480.38 583.28 479.89 582.42 480.04 L 573.27 481.66 C 572.57 481.79 572.02 482.32 571.86 483.01 Z" fill="url(#SVGID_28_)" fill-rule="nonzero" group-id="1,5" node-id="552" stroke="none" target-height="25.199982" target-width="23.070007" target-x="567.68" target-y="479.89"></path><path d="M 594.92 480.89 C 595.51 480.04 595.89 477.87 595.41 477.24 C 594.53 476.53 593.70 476.94 593.07 477.56 C 593.21 472.37 592.75 468.06 592.63 466.97 C 592.31 463.79 589.07 457.97 578.50 457.97 C 567.93 457.97 565.88 465.60 565.88 465.60 C 565.88 465.60 565.19 471.00 565.40 477.55 C 564.77 476.95 563.95 476.56 563.08 477.26 C 562.59 477.90 562.97 480.07 563.57 480.91 C 564.16 481.76 564.54 483.77 564.65 484.88 C 564.75 485.94 563.99 488.75 566.77 488.40 C 568.43 495.04 575.15 500.59 579.32 500.59 C 583.89 500.59 589.95 495.01 591.68 488.40 C 594.52 488.79 593.75 485.95 593.85 484.89 C 593.95 483.75 594.33 481.74 594.92 480.89 Z" fill="url(#SVGID_29_)" fill-rule="nonzero" group-id="1,5" node-id="554" stroke="none" target-height="42.619995" target-width="33.299988" target-x="562.59" target-y="457.97"></path><path d="M 586.12 455.69 C 586.12 455.69 584.06 449.19 576.15 450.75 C 568.24 452.31 567.71 456.04 564.60 456.19 C 559.30 456.44 555.07 463.04 561.86 470.03 C 564.89 473.14 562.33 474.48 563.77 477.23 C 565.21 479.98 565.20 482.67 565.20 482.67 C 565.20 482.67 567.81 477.60 567.96 473.78 C 568.03 471.87 570.06 472.10 574.81 472.53 C 579.56 472.95 585.78 471.86 586.37 468.63 C 587.77 475.25 589.39 472.26 591.17 473.26 C 592.95 474.27 593.06 482.26 593.06 482.26 C 593.06 482.26 593.38 476.38 594.62 475.06 C 595.64 472.89 597.65 464.36 595.38 462.29 C 593.09 460.23 595.00 453.59 586.12 455.69 Z" fill="url(#SVGID_30_)" fill-rule="nonzero" group-id="1,5" node-id="556" stroke="none" target-height="33.48001" target-width="42.580017" target-x="555.07" target-y="449.19"></path><path d="M 548.01 496.97 C 553.60 495.11 561.18 496.36 561.49 508.90 C 561.80 521.44 549.51 541.43 553.91 548.38 C 558.37 555.43 567.91 565.43 573.97 571.13 C 572.56 577.83 568.75 583.46 568.75 583.46 C 568.75 583.46 546.39 573.14 536.65 562.81 C 526.91 552.48 531.83 528.78 536.34 511.92 C 539.75 499.21 548.01 496.97 548.01 496.97 Z" fill="url(#SVGID_31_)" fill-rule="nonzero" group-id="1,5" node-id="558" stroke="none" target-height="88.35004" target-width="47.059998" target-x="526.91" target-y="495.11"></path><path d="M 606.61 496.97 C 601.02 495.11 593.44 496.36 593.13 508.90 C 592.82 521.44 605.11 541.43 600.71 548.38 C 596.25 555.43 586.71 565.43 580.65 571.13 C 582.06 577.83 585.87 583.46 585.87 583.46 C 585.87 583.46 608.23 573.14 617.97 562.81 C 627.71 552.48 622.79 528.78 618.28 511.92 C 614.88 499.21 606.61 496.97 606.61 496.97 Z" fill="url(#SVGID_32_)" fill-rule="nonzero" group-id="1,5" node-id="560" stroke="none" target-height="88.35004" target-width="47.059998" target-x="580.65" target-y="495.11"></path><path d="M 557.27 494.50 C 557.18 494.18 558.79 482.32 558.95 479.94 C 559.10 477.57 561.28 475.43 562.58 473.41 C 563.87 471.39 562.39 470.50 566.22 468.90 C 570.05 467.30 572.65 465.96 573.18 466.80 C 573.70 467.64 573.22 468.05 573.22 468.05 C 573.22 468.05 575.52 468.54 573.50 470.41 C 571.48 472.28 569.83 474.95 569.20 476.61 C 571.07 474.97 572.00 473.93 571.96 476.10 C 571.92 478.27 571.85 479.41 570.00 481.71 C 568.15 484.01 568.52 486.63 567.87 488.76 C 567.22 490.89 565.27 493.95 562.33 496.50 C 559.39 499.04 557.46 500.43 557.46 500.43 L 557.27 494.50 Z" fill="url(#SVGID_33_)" fill-rule="nonzero" group-id="1,5" node-id="562" stroke="none" target-height="34.47" target-width="18.340027" target-x="557.18" target-y="465.96"></path><path d="M 556.19 488.98 L 568.76 493.43 C 568.76 493.43 565.28 574.19 537.36 564.77 C 527.00 558.95 530.98 539.96 535.56 530.00 C 539.04 522.44 556.19 488.98 556.19 488.98 Z" fill="url(#SVGID_34_)" fill-rule="nonzero" group-id="1,5" node-id="564" stroke="none" target-height="85.20999" target-width="41.76001" target-x="527" target-y="488.98"></path><path d="M 598.38 494.50 C 598.47 494.18 596.86 482.32 596.70 479.94 C 596.55 477.57 594.37 475.43 593.07 473.41 C 591.78 471.39 593.26 470.50 589.43 468.90 C 585.60 467.30 583.00 465.96 582.47 466.80 C 581.94 467.64 582.43 468.05 582.43 468.05 C 582.43 468.05 580.13 468.54 582.15 470.41 C 584.17 472.28 585.82 474.95 586.45 476.61 C 584.58 474.97 583.65 473.93 583.69 476.10 C 583.73 478.27 583.80 479.41 585.65 481.71 C 587.50 484.01 587.13 486.63 587.78 488.76 C 588.43 490.89 590.38 493.95 593.32 496.50 C 596.26 499.04 598.19 500.43 598.19 500.43 L 598.38 494.50 Z" fill="url(#SVGID_35_)" fill-rule="nonzero" group-id="1,5" node-id="566" stroke="none" target-height="34.47" target-width="18.339966" target-x="580.13" target-y="465.96"></path><path d="M 599.46 488.98 L 586.89 493.43 C 586.89 493.43 590.37 574.19 618.29 564.77 C 628.65 558.95 624.67 539.96 620.09 530.00 C 616.61 522.44 599.46 488.98 599.46 488.98 Z" fill="url(#SVGID_36_)" fill-rule="nonzero" group-id="1,5" node-id="568" stroke="none" target-height="85.20999" target-width="41.76001" target-x="586.89" target-y="488.98"></path><path d="M 550.73 594.40 L 605.02 594.40 C 607.48 594.40 609.68 592.54 610.53 589.73 L 621.47 553.73 C 622.89 549.06 620.05 544.09 615.96 544.09 L 540.28 544.09 C 536.23 544.09 533.39 548.97 534.74 553.63 L 545.19 589.63 C 546.02 592.49 548.24 594.40 550.73 594.40 Z" fill="url(#SVGID_37_)" fill-rule="nonzero" group-id="1,5" node-id="570" stroke="none" target-height="50.309998" target-width="89.5" target-x="533.39" target-y="544.09"></path><path d="M 548.56 610.96 C 548.56 610.96 547.72 609.11 547.08 608.91 C 546.43 608.71 537.15 608.34 533.76 607.46 C 530.37 606.58 520.61 605.19 516.42 609.15 C 512.78 612.60 511.57 620.66 517.12 625.30 C 519.20 627.11 521.25 627.64 528.96 627.28 C 536.67 626.92 547.85 627.00 550.30 623.43 C 550.22 617.53 548.56 610.96 548.56 610.96 Z" fill="#ffffff" fill-rule="nonzero" group-id="1,5,9" node-id="574" stroke="none" target-height="22.450012" target-width="38.72998" target-x="511.57" target-y="605.19"></path><path d="M 557.17 608.91 C 557.17 608.91 548.21 610.92 545.00 610.63 C 541.80 610.33 544.48 623.25 544.48 623.25 C 544.48 623.25 553.04 623.84 560.61 621.65 C 563.17 611.76 557.17 608.91 557.17 608.91 Z" fill="url(#SVGID_38_)" fill-rule="nonzero" group-id="1,5,9" node-id="576" stroke="none" target-height="14.930054" target-width="21.369995" target-x="541.8" target-y="608.91"></path><path d="M 553.96 608.44 L 558.62 622.93 C 558.62 622.93 658.75 609.74 644.44 577.25 C 632.48 550.08 553.96 608.44 553.96 608.44 Z" fill="url(#SVGID_39_)" fill-rule="nonzero" group-id="1,5,9" node-id="578" stroke="none" target-height="72.849976" target-width="104.78998" target-x="553.96" target-y="550.08"></path><path d="M 547.39 609.56 C 547.39 609.56 551.06 611.00 551.52 616.11 C 551.99 621.23 550.47 624.66 542.67 625.61 C 534.87 626.56 532.89 626.20 528.00 626.32 C 523.11 626.44 516.01 626.91 514.96 617.61 C 513.91 608.31 523.42 605.94 533.28 608.31 C 536.39 608.91 547.39 609.56 547.39 609.56 Z" fill="url(#SVGID_40_)" fill-rule="nonzero" group-id="1,5,9" node-id="580" stroke="none" target-height="20.96997" target-width="38.080017" target-x="513.91" target-y="605.94"></path><path d="M 611.04 610.96 C 611.04 610.96 611.88 609.11 612.52 608.91 C 613.17 608.71 622.45 608.34 625.84 607.46 C 629.23 606.58 638.33 605.12 642.93 609.04 C 647.19 612.68 647.47 620.73 642.62 625.17 C 640.54 626.98 638.35 627.64 630.64 627.28 C 622.93 626.92 611.75 627.00 609.30 623.43 C 609.38 617.53 611.04 610.96 611.04 610.96 Z" fill="#ffffff" fill-rule="nonzero" group-id="1,5,10" node-id="585" stroke="none" target-height="22.52002" target-width="38.169983" target-x="609.3" target-y="605.12"></path><path d="M 602.43 608.91 C 602.43 608.91 611.39 610.92 614.60 610.63 C 617.80 610.33 615.12 623.25 615.12 623.25 C 615.12 623.25 606.56 623.84 598.99 621.65 C 596.43 611.76 602.43 608.91 602.43 608.91 Z" fill="url(#SVGID_41_)" fill-rule="nonzero" group-id="1,5,10" node-id="587" stroke="none" target-height="14.930054" target-width="21.369995" target-x="596.43" target-y="608.91"></path><path d="M 605.64 608.44 L 600.98 622.93 C 600.98 622.93 500.85 609.74 515.16 577.25 C 527.12 550.08 605.64 608.44 605.64 608.44 Z" fill="url(#SVGID_42_)" fill-rule="nonzero" group-id="1,5,10" node-id="589" stroke="none" target-height="72.849976" target-width="104.79001" target-x="500.85" target-y="550.08"></path><path d="M 612.21 609.56 C 612.21 609.56 608.54 611.00 608.08 616.11 C 607.61 621.23 609.13 624.66 616.93 625.61 C 624.73 626.56 626.71 626.20 631.60 626.32 C 636.49 626.44 643.59 626.91 644.64 617.61 C 645.69 608.31 636.18 605.94 626.32 608.31 C 623.21 608.91 612.21 609.56 612.21 609.56 Z" fill="url(#SVGID_43_)" fill-rule="nonzero" group-id="1,5,10" node-id="591" stroke="none" target-height="20.96997" target-width="38.080017" target-x="607.61" target-y="605.94"></path></g></svg>