<?xml version="1.0" standalone="no"?><!DOCTYPE svg PUBLIC "-//W3C//DTD SVG 1.1//EN" "http://www.w3.org/Graphics/SVG/1.1/DTD/svg11.dtd"><svg height="800" node-id="1" sillyvg="true" template-height="800" template-width="800" version="1.1" viewBox="0 0 800 800" width="800" xmlns="http://www.w3.org/2000/svg" xmlns:xlink="http://www.w3.org/1999/xlink"><defs node-id="185"><linearGradient gradientUnits="userSpaceOnUse" id="SVGID_1_" node-id="9" spreadMethod="pad" x1="399.6631" x2="399.6631" y1="160.3577" y2="715.8493"><stop offset="0.00000009590021" stop-color="#f4f2fb"></stop><stop offset="1" stop-color="#e1eef5"></stop></linearGradient><linearGradient gradientUnits="userSpaceOnUse" id="SVGID_2_" node-id="14" spreadMethod="pad" x1="114.7449" x2="114.7449" y1="540.744" y2="403.5694"><stop offset="0.2267" stop-color="#d0dceb"></stop><stop offset="0.7893" stop-color="#ecf1fb"></stop></linearGradient><linearGradient gradientUnits="userSpaceOnUse" id="SVGID_3_" node-id="19" spreadMethod="pad" x1="114.7468" x2="114.7468" y1="418.8011" y2="569.9344"><stop offset="0" stop-color="#ecf1fb"></stop><stop offset="0.818" stop-color="#b6c9dd"></stop></linearGradient><linearGradient gradientUnits="userSpaceOnUse" id="SVGID_4_" node-id="24" spreadMethod="pad" x1="615.8737" x2="615.8737" y1="449.222" y2="360.8975"><stop offset="0.2267" stop-color="#d0dceb"></stop><stop offset="0.7893" stop-color="#ecf1fb"></stop></linearGradient><linearGradient gradientUnits="userSpaceOnUse" id="SVGID_5_" node-id="29" spreadMethod="pad" x1="615.8749" x2="615.8749" y1="370.705" y2="468.0173"><stop offset="0" stop-color="#ecf1fb"></stop><stop offset="0.818" stop-color="#b6c9dd"></stop></linearGradient><linearGradient gradientUnits="userSpaceOnUse" id="SVGID_6_" node-id="33" spreadMethod="pad" x1="461.7918" x2="427.0376" y1="86.6154" y2="146.8116"><stop offset="0" stop-color="#ffdb80"></stop><stop offset="1" stop-color="#ffbb24"></stop></linearGradient><linearGradient gradientUnits="userSpaceOnUse" id="SVGID_7_" node-id="37" spreadMethod="pad" x1="419.4547" x2="419.4547" y1="117.0816" y2="174.5356"><stop offset="0" stop-color="#f9fafe"></stop><stop offset="1" stop-color="#e5edf7"></stop></linearGradient><linearGradient gradientUnits="userSpaceOnUse" id="SVGID_8_" node-id="42" spreadMethod="pad" x1="686.4761" x2="686.4761" y1="538.4622" y2="510.6339"><stop offset="0.2267" stop-color="#d0dceb"></stop><stop offset="0.7893" stop-color="#ecf1fb"></stop></linearGradient><linearGradient gradientUnits="userSpaceOnUse" id="SVGID_9_" node-id="46" spreadMethod="pad" x1="686.5251" x2="686.5251" y1="514.1476" y2="558.9435"><stop offset="0" stop-color="#ecf1fb"></stop><stop offset="0.818" stop-color="#b6c9dd"></stop></linearGradient><linearGradient gradientUnits="userSpaceOnUse" id="SVGID_10_" node-id="51" spreadMethod="pad" x1="373.978" x2="400.5014" y1="205.1795" y2="159.2396"><stop offset="0.15" stop-color="#afc5d8"></stop><stop offset="1" stop-color="#dfe8f9"></stop></linearGradient><linearGradient gradientUnits="userSpaceOnUse" id="SVGID_11_" node-id="55" spreadMethod="pad" x1="448.058" x2="314.4425" y1="211.6685" y2="288.8115"><stop offset="0.2267" stop-color="#d0dceb"></stop><stop offset="1" stop-color="#edf2fa"></stop></linearGradient><linearGradient gradientUnits="userSpaceOnUse" id="SVGID_12_" node-id="59" spreadMethod="pad" x1="538.06" x2="241.7212" y1="297.1725" y2="297.1725"><stop offset="0.15" stop-color="#afc5d8"></stop><stop offset="1" stop-color="#dfe8f9"></stop></linearGradient><linearGradient gradientUnits="userSpaceOnUse" id="SVGID_13_" node-id="63" spreadMethod="pad" x1="538.06" x2="241.7212" y1="301.9791" y2="301.9791"><stop offset="0.2267" stop-color="#d0dceb"></stop><stop offset="0.7893" stop-color="#e6edf8"></stop></linearGradient><linearGradient gradientUnits="userSpaceOnUse" id="SVGID_14_" node-id="67" spreadMethod="pad" x1="399.1386" x2="399.1386" y1="317.9313" y2="623.738"><stop offset="0" stop-color="#d0dceb"></stop><stop offset="1" stop-color="#e8eff8"></stop></linearGradient><linearGradient gradientUnits="userSpaceOnUse" id="SVGID_15_" node-id="72" spreadMethod="pad" x1="263.5528" x2="296.0521" y1="304.3359" y2="304.3359"><stop offset="0.15" stop-color="#afc5d8"></stop><stop offset="1" stop-color="#c9d6e7"></stop></linearGradient><linearGradient gradientUnits="userSpaceOnUse" id="SVGID_16_" node-id="77" spreadMethod="pad" x1="296.5482" x2="329.0475" y1="272.5809" y2="272.5809"><stop offset="0.15" stop-color="#afc5d8"></stop><stop offset="1" stop-color="#c9d6e7"></stop></linearGradient><linearGradient gradientUnits="userSpaceOnUse" id="SVGID_17_" node-id="82" spreadMethod="pad" x1="371.3462" x2="403.8455" y1="258.2539" y2="258.2539"><stop offset="0.15" stop-color="#afc5d8"></stop><stop offset="1" stop-color="#c9d6e7"></stop></linearGradient><linearGradient gradientUnits="userSpaceOnUse" id="SVGID_18_" node-id="87" spreadMethod="pad" x1="447.2502" x2="479.7495" y1="269.4023" y2="269.4023"><stop offset="0.15" stop-color="#afc5d8"></stop><stop offset="1" stop-color="#c9d6e7"></stop></linearGradient><linearGradient gradientUnits="userSpaceOnUse" id="SVGID_19_" node-id="92" spreadMethod="pad" x1="487.9983" x2="520.4976" y1="301.5863" y2="301.5863"><stop offset="0.15" stop-color="#afc5d8"></stop><stop offset="1" stop-color="#c9d6e7"></stop></linearGradient><linearGradient gradientUnits="userSpaceOnUse" id="SVGID_20_" node-id="97" spreadMethod="pad" x1="316.2725" x2="467.3129" y1="305.0804" y2="305.0804"><stop offset="0.15" stop-color="#afc5d8"></stop><stop offset="1" stop-color="#c9d6e7"></stop></linearGradient><linearGradient gradientUnits="userSpaceOnUse" id="SVGID_21_" node-id="102" spreadMethod="pad" x1="396.4507" x2="396.4507" y1="642.6289" y2="576.2184"><stop offset="0" stop-color="#b4c9db"></stop><stop offset="1" stop-color="#eef3fc"></stop></linearGradient><linearGradient gradientUnits="userSpaceOnUse" id="SVGID_22_" node-id="106" spreadMethod="pad" x1="372.9398" x2="372.9398" y1="515.4293" y2="462.0585"><stop offset="0" stop-color="#4f5c7c"></stop><stop offset="1" stop-color="#274168"></stop></linearGradient><linearGradient gradientUnits="userSpaceOnUse" id="SVGID_23_" node-id="110" spreadMethod="pad" x1="396.4507" x2="396.4507" y1="568.129" y2="488.9602"><stop offset="0" stop-color="#fad96e"></stop><stop offset="1" stop-color="#ffb32c"></stop></linearGradient><linearGradient gradientUnits="userSpaceOnUse" id="SVGID_24_" node-id="114" spreadMethod="pad" x1="397.5486" x2="397.5486" y1="475.458" y2="500.5381"><stop offset="0" stop-color="#f4ae98"></stop><stop offset="1" stop-color="#fad1bb"></stop></linearGradient><linearGradient gradientTransform="matrix(0.9901 -0.1406 0.1406 0.9901 -346.6123 337.0388)" gradientUnits="userSpaceOnUse" id="SVGID_25_" node-id="118" spreadMethod="pad" x1="676.3151" x2="688.5735" y1="340.347" y2="254.0343"><stop offset="0" stop-color="#fad96e"></stop><stop offset="1" stop-color="#ffa91f"></stop></linearGradient><linearGradient gradientTransform="matrix(-0.9901 -0.1406 -0.1406 0.9901 5005.4678 337.0388)" gradientUnits="userSpaceOnUse" id="SVGID_26_" node-id="122" spreadMethod="pad" x1="4505.449" x2="4517.7075" y1="884.1741" y2="797.8615"><stop offset="0" stop-color="#fad96e"></stop><stop offset="1" stop-color="#ffa91f"></stop></linearGradient><linearGradient gradientUnits="userSpaceOnUse" id="SVGID_27_" node-id="126" spreadMethod="pad" x1="416.9703" x2="416.9703" y1="515.0571" y2="464.8684"><stop offset="0" stop-color="#4f5c7c"></stop><stop offset="1" stop-color="#274168"></stop></linearGradient><linearGradient gradientTransform="matrix(0.9995 0.0319 -0.0319 0.9995 93.1026 -42.248)" gradientUnits="userSpaceOnUse" id="SVGID_28_" node-id="130" spreadMethod="pad" x1="318.8174" x2="318.8174" y1="486.0066" y2="518.6955"><stop offset="0" stop-color="#f4b9a4"></stop><stop offset="0.652" stop-color="#fad1bb"></stop></linearGradient><linearGradient gradientUnits="userSpaceOnUse" id="SVGID_29_" node-id="134" spreadMethod="pad" x1="394.4367" x2="394.4367" y1="475.2605" y2="445.0509"><stop offset="0" stop-color="#4f5c7c"></stop><stop offset="1" stop-color="#274168"></stop></linearGradient><linearGradient gradientUnits="userSpaceOnUse" id="SVGID_30_" node-id="138" spreadMethod="pad" x1="396.4507" x2="396.4507" y1="539.538" y2="589.8486"><stop offset="0" stop-color="#275c89"></stop><stop offset="1" stop-color="#013f7c"></stop></linearGradient><linearGradient gradientUnits="userSpaceOnUse" id="SVGID_31_" node-id="144" spreadMethod="pad" x1="-4128.2173" x2="-4146.028" y1="611.5613" y2="611.5613"><stop offset="0" stop-color="#f4b9a4"></stop><stop offset="0.652" stop-color="#fad1bb"></stop></linearGradient><linearGradient gradientUnits="userSpaceOnUse" id="SVGID_32_" node-id="148" spreadMethod="pad" x1="372.3017" x2="464.1832" y1="591.9311" y2="591.9311"><stop offset="0" stop-color="#18264b"></stop><stop offset="0.652" stop-color="#2d3c65"></stop></linearGradient><linearGradient gradientUnits="userSpaceOnUse" id="SVGID_33_" node-id="152" spreadMethod="pad" x1="351.5848" x2="351.5848" y1="621.8148" y2="602.9087"><stop offset="0" stop-color="#4673bc"></stop><stop offset="0.652" stop-color="#6a94e0"></stop></linearGradient><linearGradient gradientUnits="userSpaceOnUse" id="SVGID_34_" node-id="158" spreadMethod="pad" x1="416.6939" x2="434.5045" y1="611.5613" y2="611.5613"><stop offset="0" stop-color="#f4b9a4"></stop><stop offset="0.652" stop-color="#fad1bb"></stop></linearGradient><linearGradient gradientUnits="userSpaceOnUse" id="SVGID_35_" node-id="162" spreadMethod="pad" x1="332.0941" x2="423.9755" y1="591.9311" y2="591.9311"><stop offset="0" stop-color="#445677"></stop><stop offset="1" stop-color="#293861"></stop></linearGradient><linearGradient gradientUnits="userSpaceOnUse" id="SVGID_36_" node-id="166" spreadMethod="pad" x1="444.6924" x2="444.6924" y1="621.8148" y2="602.9087"><stop offset="0" stop-color="#4673bc"></stop><stop offset="0.652" stop-color="#6a94e0"></stop></linearGradient></defs><g node-id="523"><g node-id="524"><path d="M 482.92 201.71 C 444.55 232.00 362.18 235.52 301.75 199.49 C 241.32 163.46 129.75 168.11 99.53 234.36 C 69.31 300.61 136.72 365.69 112.31 413.34 C 87.90 460.99 6.55 528.39 62.34 609.74 C 118.13 691.09 188.94 670.36 231.56 662.19 C 315.73 646.06 421.35 777.86 540.18 678.32 C 608.65 620.97 710.62 720.41 750.35 596.96 C 783.13 495.10 664.68 457.46 700.38 388.93 C 738.34 316.05 731.05 229.69 689.92 187.87 C 651.61 148.91 549.17 149.41 482.92 201.71 Z" fill="url(#SVGID_1_)" fill-rule="nonzero" group-id="1,2" node-id="409" stroke="none" target-height="628.94995" target-width="776.58" target-x="6.55" target-y="148.91"></path><g node-id="527"><path d="M 115.53 403.81 C 115.53 403.81 115.31 403.24 115.01 403.85 C 112.31 409.34 87.86 468.81 85.92 514.71 C 85.92 514.71 81.84 541.08 116.03 540.73 C 144.57 540.44 143.81 516.13 143.71 507.94 C 143.32 474.72 115.53 403.81 115.53 403.81 Z" fill="url(#SVGID_2_)" fill-rule="nonzero" group-id="1,2,5" node-id="413" stroke="none" target-height="137.84003" target-width="62.73001" target-x="81.84" target-y="403.24"></path><g node-id="532"><path d="M 114.75 569.93 C 114.20 569.93 113.75 569.48 113.75 568.93 L 113.75 419.80 C 113.75 419.25 114.20 418.80 114.75 418.80 C 115.30 418.80 115.75 419.25 115.75 419.80 L 115.75 568.93 C 115.75 569.49 115.30 569.93 114.75 569.93 Z" fill="url(#SVGID_3_)" fill-rule="nonzero" group-id="1,2,5,10" node-id="417" stroke="none" target-height="151.13" target-width="2" target-x="113.75" target-y="418.8"></path></g></g><g node-id="528"><path d="M 616.38 361.05 C 616.38 361.05 616.24 360.68 616.05 361.08 C 614.31 364.61 598.57 402.91 597.32 432.46 C 597.32 432.46 594.69 449.44 616.71 449.22 C 635.09 449.04 634.60 433.38 634.53 428.11 C 634.27 406.71 616.38 361.05 616.38 361.05 Z" fill="url(#SVGID_4_)" fill-rule="nonzero" group-id="1,2,6" node-id="423" stroke="none" target-height="88.76001" target-width="40.400024" target-x="594.69" target-y="360.68"></path><g node-id="533"><path d="M 615.87 468.02 C 615.51 468.02 615.23 467.73 615.23 467.38 L 615.23 371.36 C 615.23 371.00 615.52 370.72 615.87 370.72 C 616.22 370.72 616.51 371.01 616.51 371.36 L 616.51 467.38 C 616.52 467.73 616.23 468.02 615.87 468.02 Z" fill="url(#SVGID_5_)" fill-rule="nonzero" group-id="1,2,6,11" node-id="427" stroke="none" target-height="97.29999" target-width="1.2900391" target-x="615.23" target-y="370.72"></path></g></g><path d="M 479.16 116.71 C 479.16 135.90 463.60 151.46 444.41 151.46 C 425.22 151.46 409.66 135.90 409.66 116.71 C 409.66 97.52 425.22 81.96 444.41 81.96 C 463.60 81.96 479.16 97.52 479.16 116.71 Z" fill="url(#SVGID_6_)" fill-rule="nonzero" group-id="1,2" node-id="431" stroke="none" target-height="69.50001" target-width="69.5" target-x="409.66" target-y="81.96"></path><path d="M 464.19 135.66 L 429.62 135.66 C 427.39 125.05 417.97 117.08 406.69 117.08 C 395.41 117.08 386.00 125.05 383.76 135.66 L 374.71 135.66 C 363.98 135.66 355.27 144.36 355.27 155.10 L 355.27 155.10 C 355.27 165.83 363.97 174.54 374.71 174.54 L 464.18 174.54 C 474.91 174.54 483.62 165.84 483.62 155.10 L 483.62 155.10 C 483.63 144.37 474.93 135.66 464.19 135.66 Z" fill="url(#SVGID_7_)" fill-rule="nonzero" group-id="1,2" node-id="433" stroke="none" target-height="57.45999" target-width="128.36002" target-x="355.27" target-y="117.08"></path><path d="M 700.39 524.55 C 700.39 532.23 694.16 538.46 686.48 538.46 C 678.80 538.46 672.57 532.23 672.57 524.55 C 672.57 516.87 678.80 510.64 686.48 510.64 C 694.16 510.64 700.39 516.87 700.39 524.55 Z" fill="url(#SVGID_8_)" fill-rule="nonzero" group-id="1,2,7" node-id="437" stroke="none" target-height="27.820007" target-width="27.820007" target-x="672.57" target-y="510.64"></path><path d="M 686.53 558.94 C 686.29 558.94 686.10 558.75 686.10 558.51 L 686.10 514.57 C 686.10 514.33 686.29 514.14 686.53 514.14 C 686.77 514.14 686.96 514.33 686.96 514.57 L 686.96 558.51 C 686.95 558.75 686.76 558.94 686.53 558.94 Z" fill="url(#SVGID_9_)" fill-rule="nonzero" group-id="1,2,7" node-id="439" stroke="none" target-height="44.799988" target-width="0.8600464" target-x="686.1" target-y="514.14"></path></g><g node-id="525"><path d="M 400.74 166.47 C 400.74 159.69 395.24 154.19 388.46 154.19 C 381.68 154.19 376.18 159.69 376.18 166.47 C 376.18 171.81 379.60 176.35 384.37 178.04 L 384.37 211.18 L 392.56 211.18 L 392.56 178.04 C 397.32 176.35 400.74 171.82 400.74 166.47 Z" fill="url(#SVGID_10_)" fill-rule="nonzero" group-id="1,3" node-id="445" stroke="none" target-height="56.98999" target-width="24.559998" target-x="376.18" target-y="154.19"></path><path d="M 298.16 260.61 C 298.16 260.61 319.37 195.12 388.40 195.12 C 457.43 195.12 472.69 259.31 473.06 263.03 C 433.43 263.03 298.16 260.61 298.16 260.61 Z" fill="url(#SVGID_11_)" fill-rule="nonzero" group-id="1,3" node-id="447" stroke="none" target-height="67.91" target-width="174.9" target-x="298.16" target-y="195.12"></path><path d="M 538.06 297.17 C 538.06 336.99 471.72 369.27 389.89 369.27 C 308.06 369.27 241.72 336.99 241.72 297.17 C 241.72 257.35 308.06 225.07 389.89 225.07 C 471.72 225.07 538.06 257.35 538.06 297.17 Z" fill="url(#SVGID_12_)" fill-rule="nonzero" group-id="1,3" node-id="449" stroke="none" target-height="144.19998" target-width="296.34" target-x="241.72" target-y="225.07"></path><path d="M 538.06 301.98 C 538.06 339.73 471.72 370.33 389.89 370.33 C 308.06 370.33 241.72 339.73 241.72 301.98 C 241.72 264.23 308.06 233.63 389.89 233.63 C 471.72 233.63 538.06 264.23 538.06 301.98 Z" fill="url(#SVGID_13_)" fill-rule="nonzero" group-id="1,3" node-id="451" stroke="none" target-height="136.69998" target-width="296.34" target-x="241.72" target-y="233.63"></path><path d="M 307.15 317.93 L 472.90 318.95 L 623.75 606.07 C 623.75 606.07 346.79 645.82 174.52 606.07 C 258.01 427.10 307.15 317.93 307.15 317.93 Z" fill="url(#SVGID_14_)" fill-rule="nonzero" group-id="1,3" node-id="453" stroke="none" target-height="327.89" target-width="449.22998" target-x="174.52" target-y="317.93"></path><path d="M 472.81 320.83 C 472.81 342.28 435.69 359.66 389.89 359.66 C 344.09 359.66 306.97 342.28 306.97 320.83 C 306.97 299.38 344.09 282.00 389.89 282.00 C 435.69 282.00 472.81 299.38 472.81 320.83 Z" fill="#f2f7fc" fill-rule="nonzero" group-id="1,3" node-id="455" stroke="none" target-height="77.66" target-width="165.84" target-x="306.97" target-y="282"></path><path d="M 296.05 304.34 C 296.05 311.81 288.77 317.86 279.80 317.86 C 270.83 317.86 263.55 311.81 263.55 304.34 C 263.55 296.87 270.83 290.82 279.80 290.82 C 288.77 290.82 296.05 296.87 296.05 304.34 Z" fill="url(#SVGID_15_)" fill-rule="nonzero" group-id="1,3" node-id="457" stroke="none" target-height="27.039978" target-width="32.5" target-x="263.55" target-y="290.82"></path><path d="M 295.75 301.79 C 295.75 307.85 288.61 312.77 279.80 312.77 C 270.99 312.77 263.85 307.85 263.85 301.79 C 263.85 295.73 270.99 290.81 279.80 290.81 C 288.61 290.81 295.75 295.73 295.75 301.79 Z" fill="#f2f7fc" fill-rule="nonzero" group-id="1,3" node-id="459" stroke="none" target-height="21.959991" target-width="31.899994" target-x="263.85" target-y="290.81"></path><path d="M 329.05 272.58 C 329.05 280.05 321.77 286.10 312.80 286.10 C 303.83 286.10 296.55 280.05 296.55 272.58 C 296.55 265.11 303.83 259.06 312.80 259.06 C 321.77 259.06 329.05 265.11 329.05 272.58 Z" fill="url(#SVGID_16_)" fill-rule="nonzero" group-id="1,3" node-id="461" stroke="none" target-height="27.040009" target-width="32.5" target-x="296.55" target-y="259.06"></path><path d="M 328.75 270.04 C 328.75 276.10 321.61 281.02 312.80 281.02 C 303.99 281.02 296.85 276.10 296.85 270.04 C 296.85 263.98 303.99 259.06 312.80 259.06 C 321.61 259.06 328.75 263.98 328.75 270.04 Z" fill="#f2f7fc" fill-rule="nonzero" group-id="1,3" node-id="463" stroke="none" target-height="21.959991" target-width="31.899994" target-x="296.85" target-y="259.06"></path><path d="M 403.85 258.25 C 403.85 265.72 396.57 271.77 387.60 271.77 C 378.63 271.77 371.35 265.72 371.35 258.25 C 371.35 250.78 378.63 244.73 387.60 244.73 C 396.57 244.73 403.85 250.78 403.85 258.25 Z" fill="url(#SVGID_17_)" fill-rule="nonzero" group-id="1,3" node-id="465" stroke="none" target-height="27.039993" target-width="32.5" target-x="371.35" target-y="244.73"></path><path d="M 403.55 255.71 C 403.55 261.77 396.41 266.69 387.60 266.69 C 378.79 266.69 371.65 261.77 371.65 255.71 C 371.65 249.65 378.79 244.73 387.60 244.73 C 396.41 244.73 403.55 249.65 403.55 255.71 Z" fill="#f2f7fc" fill-rule="nonzero" group-id="1,3" node-id="467" stroke="none" target-height="21.960007" target-width="31.899994" target-x="371.65" target-y="244.73"></path><path d="M 479.75 269.40 C 479.75 276.87 472.47 282.92 463.50 282.92 C 454.53 282.92 447.25 276.87 447.25 269.40 C 447.25 261.93 454.53 255.88 463.50 255.88 C 472.47 255.88 479.75 261.93 479.75 269.40 Z" fill="url(#SVGID_18_)" fill-rule="nonzero" group-id="1,3" node-id="469" stroke="none" target-height="27.040009" target-width="32.5" target-x="447.25" target-y="255.88"></path><path d="M 479.45 266.86 C 479.45 272.92 472.31 277.84 463.50 277.84 C 454.69 277.84 447.55 272.92 447.55 266.86 C 447.55 260.80 454.69 255.88 463.50 255.88 C 472.31 255.88 479.45 260.80 479.45 266.86 Z" fill="#f2f7fc" fill-rule="nonzero" group-id="1,3" node-id="471" stroke="none" target-height="21.959991" target-width="31.900024" target-x="447.55" target-y="255.88"></path><path d="M 520.50 301.59 C 520.50 309.06 513.22 315.11 504.25 315.11 C 495.28 315.11 488.00 309.06 488.00 301.59 C 488.00 294.12 495.28 288.07 504.25 288.07 C 513.22 288.07 520.50 294.12 520.50 301.59 Z" fill="url(#SVGID_19_)" fill-rule="nonzero" group-id="1,3" node-id="473" stroke="none" target-height="27.039978" target-width="32.5" target-x="488" target-y="288.07"></path><path d="M 520.20 299.04 C 520.20 305.10 513.06 310.02 504.25 310.02 C 495.44 310.02 488.30 305.10 488.30 299.04 C 488.30 292.98 495.44 288.06 504.25 288.06 C 513.06 288.06 520.20 292.98 520.20 299.04 Z" fill="#f2f7fc" fill-rule="nonzero" group-id="1,3" node-id="475" stroke="none" target-height="21.959991" target-width="31.900024" target-x="488.3" target-y="288.06"></path><path d="M 467.31 306.91 C 455.35 292.35 425.20 282.01 389.89 282.01 C 357.87 282.01 330.09 290.51 316.27 302.95 C 324.02 312.55 343.77 328.15 390.26 328.15 C 431.31 328.15 455.05 316.20 467.31 306.91 Z" fill="url(#SVGID_20_)" fill-rule="nonzero" group-id="1,3" node-id="477" stroke="none" target-height="46.139984" target-width="151.04001" target-x="316.27" target-y="282.01"></path></g><g node-id="526"><path d="M 531.52 609.42 C 531.52 627.76 471.05 642.63 396.45 642.63 C 321.85 642.63 261.38 627.76 261.38 609.42 C 261.38 591.08 321.85 576.21 396.45 576.21 C 471.05 576.21 531.52 591.08 531.52 609.42 Z" fill="url(#SVGID_21_)" fill-rule="nonzero" group-id="1,4" node-id="482" stroke="none" target-height="66.41998" target-width="270.14" target-x="261.38" target-y="576.21"></path><path d="M 376.84 465.77 C 376.84 465.77 365.27 468.56 363.04 478.57 C 358.37 479.71 342.65 488.17 354.52 506.86 C 360.51 514.19 361.42 515.43 361.42 515.43 L 395.71 505.31 L 395.71 462.06 L 376.84 465.77 Z" fill="url(#SVGID_22_)" fill-rule="nonzero" group-id="1,4" node-id="484" stroke="none" target-height="53.369995" target-width="53.059998" target-x="342.65" target-y="462.06"></path><path d="M 388.28 489.34 C 388.28 489.34 369.07 486.68 362.83 495.51 C 356.59 504.34 354.31 526.93 354.31 526.93 L 368.77 526.17 L 367.55 552.49 L 394.23 568.13 L 432.23 547.69 L 426.45 523.84 L 438.59 520.67 C 438.59 520.67 434.97 486.06 418.08 491.17 C 409.41 492.10 406.67 491.94 406.67 491.94 C 406.67 491.94 404.39 499.22 396.55 498.60 C 388.71 497.98 388.28 489.34 388.28 489.34 Z" fill="url(#SVGID_23_)" fill-rule="nonzero" group-id="1,4" node-id="486" stroke="none" target-height="82.07001" target-width="84.28" target-x="354.31" target-y="486.06"></path><path d="M 390.20 478.45 L 386.21 496.25 C 386.02 497.09 386.46 497.94 387.25 498.26 C 389.31 499.10 393.44 500.53 397.69 500.53 C 402.09 500.53 406.25 498.12 408.16 496.83 C 408.82 496.39 409.09 495.56 408.84 494.81 L 402.74 476.65 C 402.46 475.82 401.62 475.33 400.76 475.48 L 391.61 477.10 C 390.91 477.23 390.36 477.76 390.20 478.45 Z" fill="url(#SVGID_24_)" fill-rule="nonzero" group-id="1,4" node-id="488" stroke="none" target-height="25.200012" target-width="23.070007" target-x="386.02" target-y="475.33"></path><path d="M 366.35 492.42 C 371.94 490.56 379.52 491.81 379.83 504.35 C 380.14 516.89 367.85 536.88 372.25 543.83 C 376.71 550.88 386.25 560.88 392.31 566.58 C 390.90 573.28 387.09 578.91 387.09 578.91 C 387.09 578.91 364.73 568.59 354.99 558.26 C 345.25 547.93 350.17 524.23 354.68 507.37 C 358.08 494.66 366.35 492.42 366.35 492.42 Z" fill="url(#SVGID_25_)" fill-rule="nonzero" group-id="1,4" node-id="490" stroke="none" target-height="88.349976" target-width="47.059998" target-x="345.25" target-y="490.56"></path><path d="M 424.95 492.42 C 419.36 490.56 411.78 491.81 411.47 504.35 C 411.16 516.89 423.45 536.88 419.05 543.83 C 414.59 550.88 405.05 560.88 398.99 566.58 C 400.40 573.28 404.21 578.91 404.21 578.91 C 404.21 578.91 426.57 568.59 436.31 558.26 C 446.05 547.93 441.13 524.23 436.62 507.37 C 433.21 494.66 424.95 492.42 424.95 492.42 Z" fill="url(#SVGID_26_)" fill-rule="nonzero" group-id="1,4" node-id="492" stroke="none" target-height="88.349976" target-width="47.059998" target-x="398.99" target-y="490.56"></path><path d="M 400.48 475.48 C 400.48 475.48 404.54 487.76 403.52 494.58 C 402.51 501.39 403.93 511.20 412.55 514.19 C 421.17 517.18 429.39 512.13 432.33 503.56 C 435.27 494.99 432.43 488.80 425.23 483.22 C 426.45 477.96 420.52 468.40 409.97 464.99 C 399.63 463.54 400.48 475.48 400.48 475.48 Z" fill="url(#SVGID_27_)" fill-rule="nonzero" group-id="1,4" node-id="494" stroke="none" target-height="53.639984" target-width="35.639984" target-x="399.63" target-y="463.54"></path><path d="M 384.85 459.68 C 384.85 459.68 378.26 464.33 378.40 470.92 C 378.54 477.51 383.83 476.28 383.83 476.28 C 383.83 476.28 385.43 486.04 395.83 486.38 C 406.23 486.71 407.70 476.31 407.70 476.31 C 407.70 476.31 412.92 476.97 413.04 470.97 C 413.16 464.97 408.60 456.92 404.07 454.63 C 399.53 452.33 388.39 455.10 384.85 459.68 Z" fill="url(#SVGID_28_)" fill-rule="nonzero" group-id="1,4" node-id="496" stroke="none" target-height="34.380005" target-width="34.899994" target-x="378.26" target-y="452.33"></path><path d="M 391.55 457.62 C 391.55 457.62 389.47 463.61 384.24 464.64 C 379.01 465.67 378.55 468.34 378.55 470.84 C 378.55 472.68 379.17 474.43 379.61 475.27 C 376.79 473.72 372.94 470.02 375.39 459.82 C 377.76 449.97 385.05 445.18 394.87 445.33 C 403.09 443.16 415.26 454.17 414.20 468.49 C 412.45 466.17 410.83 465.63 409.61 465.21 C 408.39 464.80 405.86 462.27 405.55 459.74 C 403.42 460.20 395.96 461.23 391.55 457.62 Z" fill="url(#SVGID_29_)" fill-rule="nonzero" group-id="1,4" node-id="498" stroke="none" target-height="32.109985" target-width="42.320007" target-x="372.94" target-y="443.16"></path><path d="M 369.06 589.85 L 423.35 589.85 C 425.81 589.85 428.01 587.99 428.86 585.18 L 439.80 549.18 C 441.22 544.51 438.38 539.54 434.29 539.54 L 358.61 539.54 C 354.56 539.54 351.72 544.42 353.07 549.08 L 363.52 585.08 C 364.35 587.94 366.57 589.85 369.06 589.85 Z" fill="url(#SVGID_30_)" fill-rule="nonzero" group-id="1,4" node-id="500" stroke="none" target-height="50.309998" target-width="89.5" target-x="351.72" target-y="539.54"></path><g node-id="530"><path d="M 366.90 606.40 C 366.90 606.40 366.06 604.55 365.42 604.35 C 364.77 604.15 355.49 603.78 352.10 602.90 C 348.71 602.02 338.95 600.63 334.76 604.59 C 331.12 608.04 329.91 616.10 335.46 620.74 C 337.54 622.55 339.59 623.08 347.30 622.72 C 355.01 622.36 366.19 622.44 368.64 618.87 C 368.56 612.97 366.90 606.40 366.90 606.40 Z" fill="#ffffff" fill-rule="nonzero" group-id="1,4,8" node-id="504" stroke="none" target-height="22.450012" target-width="38.73001" target-x="329.91" target-y="600.63"></path><path d="M 375.51 604.36 C 375.51 604.36 366.55 606.37 363.34 606.08 C 360.13 605.79 362.82 618.70 362.82 618.70 C 362.82 618.70 371.38 619.29 378.95 617.10 C 381.51 607.20 375.51 604.36 375.51 604.36 Z" fill="url(#SVGID_31_)" fill-rule="nonzero" group-id="1,4,8" node-id="506" stroke="none" target-height="14.929993" target-width="21.380005" target-x="360.13" target-y="604.36"></path><path d="M 372.30 603.89 L 376.96 618.38 C 376.96 618.38 477.09 605.19 462.78 572.70 C 450.82 545.53 372.30 603.89 372.30 603.89 Z" fill="url(#SVGID_32_)" fill-rule="nonzero" group-id="1,4,8" node-id="508" stroke="none" target-height="72.849976" target-width="104.79001" target-x="372.3" target-y="545.53"></path><path d="M 365.73 605.01 C 365.73 605.01 369.40 606.45 369.86 611.56 C 370.33 616.68 368.81 620.11 361.01 621.06 C 353.21 622.01 351.23 621.65 346.34 621.77 C 341.45 621.89 334.35 622.36 333.30 613.06 C 332.25 603.76 341.76 601.39 351.62 603.76 C 354.73 604.36 365.73 605.01 365.73 605.01 Z" fill="url(#SVGID_33_)" fill-rule="nonzero" group-id="1,4,8" node-id="510" stroke="none" target-height="20.96997" target-width="38.079987" target-x="332.25" target-y="601.39"></path></g><g node-id="531"><path d="M 429.38 606.40 C 429.38 606.40 430.22 604.55 430.86 604.35 C 431.51 604.15 440.79 603.78 444.18 602.90 C 447.57 602.02 456.67 600.56 461.27 604.48 C 465.53 608.12 465.81 616.17 460.96 620.61 C 458.88 622.42 456.69 623.08 448.98 622.72 C 441.27 622.36 430.09 622.44 427.64 618.87 C 427.72 612.97 429.38 606.40 429.38 606.40 Z" fill="#ffffff" fill-rule="nonzero" group-id="1,4,9" node-id="515" stroke="none" target-height="22.52002" target-width="38.169983" target-x="427.64" target-y="600.56"></path><path d="M 420.77 604.36 C 420.77 604.36 429.73 606.37 432.94 606.08 C 436.15 605.79 433.46 618.70 433.46 618.70 C 433.46 618.70 424.90 619.29 417.33 617.10 C 414.77 607.20 420.77 604.36 420.77 604.36 Z" fill="url(#SVGID_34_)" fill-rule="nonzero" group-id="1,4,9" node-id="517" stroke="none" target-height="14.929993" target-width="21.380005" target-x="414.77" target-y="604.36"></path><path d="M 423.98 603.89 L 419.32 618.38 C 419.32 618.38 319.19 605.19 333.50 572.70 C 345.46 545.53 423.98 603.89 423.98 603.89 Z" fill="url(#SVGID_35_)" fill-rule="nonzero" group-id="1,4,9" node-id="519" stroke="none" target-height="72.849976" target-width="104.79001" target-x="319.19" target-y="545.53"></path><path d="M 430.54 605.01 C 430.54 605.01 426.87 606.45 426.41 611.56 C 425.94 616.68 427.46 620.11 435.26 621.06 C 443.06 622.01 445.04 621.65 449.93 621.77 C 454.82 621.89 461.92 622.36 462.97 613.06 C 464.02 603.76 454.51 601.39 444.65 603.76 C 441.55 604.36 430.54 605.01 430.54 605.01 Z" fill="url(#SVGID_36_)" fill-rule="nonzero" group-id="1,4,9" node-id="521" stroke="none" target-height="20.96997" target-width="38.079987" target-x="425.94" target-y="601.39"></path></g></g></g></svg>