<?xml version="1.0" standalone="no"?><!DOCTYPE svg PUBLIC "-//W3C//DTD SVG 1.1//EN" "http://www.w3.org/Graphics/SVG/1.1/DTD/svg11.dtd"><svg height="800" node-id="1" sillyvg="true" template-height="800" template-width="800" version="1.1" viewBox="0 0 800 800" width="800" xmlns="http://www.w3.org/2000/svg" xmlns:xlink="http://www.w3.org/1999/xlink"><defs node-id="144"><linearGradient gradientUnits="userSpaceOnUse" id="SVGID_1_" node-id="12" spreadMethod="pad" x1="400.9113" x2="400.9113" y1="159.3104" y2="714.802"><stop offset="0.00000009590021" stop-color="#f4f2fb"></stop><stop offset="1" stop-color="#e1eef5"></stop></linearGradient><linearGradient gradientUnits="userSpaceOnUse" id="SVGID_2_" node-id="16" spreadMethod="pad" x1="480.973" x2="480.973" y1="603.3485" y2="492.0356"><stop offset="0.0746" stop-color="#b4c9db"></stop><stop offset="0.9134" stop-color="#eaeef8"></stop><stop offset="1" stop-color="#ecf0f9"></stop></linearGradient><linearGradient gradientUnits="userSpaceOnUse" id="SVGID_3_" node-id="22" spreadMethod="pad" x1="115.9931" x2="115.9931" y1="540.6995" y2="403.525"><stop offset="0.2267" stop-color="#d0dceb"></stop><stop offset="0.7893" stop-color="#ecf1fb"></stop></linearGradient><linearGradient gradientUnits="userSpaceOnUse" id="SVGID_4_" node-id="27" spreadMethod="pad" x1="115.995" x2="115.995" y1="418.7567" y2="569.89"><stop offset="0" stop-color="#ecf1fb"></stop><stop offset="0.818" stop-color="#b6c9dd"></stop></linearGradient><linearGradient gradientUnits="userSpaceOnUse" id="SVGID_5_" node-id="32" spreadMethod="pad" x1="617.1219" x2="617.1219" y1="449.1776" y2="360.8531"><stop offset="0.2267" stop-color="#d0dceb"></stop><stop offset="0.7893" stop-color="#ecf1fb"></stop></linearGradient><linearGradient gradientUnits="userSpaceOnUse" id="SVGID_6_" node-id="37" spreadMethod="pad" x1="617.1232" x2="617.1232" y1="370.6605" y2="467.9728"><stop offset="0" stop-color="#ecf1fb"></stop><stop offset="0.818" stop-color="#b6c9dd"></stop></linearGradient><linearGradient gradientUnits="userSpaceOnUse" id="SVGID_7_" node-id="42" spreadMethod="pad" x1="673.8318" x2="673.8318" y1="544.7239" y2="510.393"><stop offset="0.2267" stop-color="#d0dceb"></stop><stop offset="0.7893" stop-color="#ecf1fb"></stop></linearGradient><linearGradient gradientUnits="userSpaceOnUse" id="SVGID_8_" node-id="46" spreadMethod="pad" x1="673.8925" x2="673.8925" y1="514.7277" y2="569.9913"><stop offset="0" stop-color="#ecf1fb"></stop><stop offset="0.818" stop-color="#b6c9dd"></stop></linearGradient><linearGradient gradientUnits="userSpaceOnUse" id="SVGID_9_" node-id="50" spreadMethod="pad" x1="463.04" x2="428.2858" y1="86.571" y2="146.7671"><stop offset="0" stop-color="#ffdb80"></stop><stop offset="1" stop-color="#ffbb24"></stop></linearGradient><linearGradient gradientUnits="userSpaceOnUse" id="SVGID_10_" node-id="54" spreadMethod="pad" x1="420.7029" x2="420.7029" y1="117.0371" y2="174.4911"><stop offset="0" stop-color="#f9fafe"></stop><stop offset="1" stop-color="#e5edf7"></stop></linearGradient><linearGradient gradientUnits="userSpaceOnUse" id="SVGID_11_" node-id="59" spreadMethod="pad" x1="-2273.585" x2="-2415.976" y1="449.7858" y2="307.3948"><stop offset="0.15" stop-color="#afc5d8"></stop><stop offset="1" stop-color="#dfe8f9"></stop></linearGradient><linearGradient gradientUnits="userSpaceOnUse" id="SVGID_12_" node-id="63" spreadMethod="pad" x1="-2350.3691" x2="-2350.3691" y1="391.8486" y2="258.8271"><stop offset="0" stop-color="#c7d4e5"></stop><stop offset="0.6872" stop-color="#e8eff8"></stop></linearGradient><linearGradient gradientUnits="userSpaceOnUse" id="SVGID_13_" node-id="67" spreadMethod="pad" x1="-2190.8296" x2="-2502.5854" y1="640.5619" y2="328.806"><stop offset="0.15" stop-color="#afc5d8"></stop><stop offset="1" stop-color="#dfe8f9"></stop></linearGradient><linearGradient gradientUnits="userSpaceOnUse" id="SVGID_14_" node-id="71" spreadMethod="pad" x1="-2252.8953" x2="-2450.4155" y1="318.5755" y2="660.6907"><stop offset="0" stop-color="#ebf2fa"></stop><stop offset="0.5247" stop-color="#fdfeff"></stop></linearGradient><linearGradient gradientUnits="userSpaceOnUse" id="SVGID_15_" node-id="75" spreadMethod="pad" x1="-2351.6177" x2="-2351.6177" y1="424.5387" y2="360.3459"><stop offset="0" stop-color="#bbcee0"></stop><stop offset="1" stop-color="#dfe8f9"></stop></linearGradient><linearGradient gradientUnits="userSpaceOnUse" id="SVGID_16_" node-id="80" spreadMethod="pad" x1="346.5648" x2="280.3459" y1="548.7701" y2="482.5512"><stop offset="0.15" stop-color="#b6cadc"></stop><stop offset="1" stop-color="#dfe8f9"></stop></linearGradient><linearGradient gradientUnits="userSpaceOnUse" id="SVGID_17_" node-id="84" spreadMethod="pad" x1="517.2143" x2="450.9954" y1="548.77" y2="482.5511"><stop offset="0.15" stop-color="#b6cadc"></stop><stop offset="1" stop-color="#dfe8f9"></stop></linearGradient><linearGradient gradientUnits="userSpaceOnUse" id="SVGID_18_" node-id="88" spreadMethod="pad" x1="431.9648" x2="341.6797" y1="555.7226" y2="465.4376"><stop offset="0.15" stop-color="#b6cadc"></stop><stop offset="1" stop-color="#dfe8f9"></stop></linearGradient><linearGradient gradientUnits="userSpaceOnUse" id="SVGID_19_" node-id="92" spreadMethod="pad" x1="612.4457" x2="653.7556" y1="626.2788" y2="554.7281"><stop offset="0.0746" stop-color="#cad8e7"></stop><stop offset="0.9134" stop-color="#eaeef8"></stop><stop offset="1" stop-color="#ecf0f9"></stop></linearGradient><linearGradient gradientTransform="matrix(0.9992 0.0407 -0.0407 0.9992 -72.695 -3896.9287)" gradientUnits="userSpaceOnUse" id="SVGID_20_" node-id="98" spreadMethod="pad" x1="870.7586" x2="870.7586" y1="4488.0234" y2="4475.3623"><stop offset="0" stop-color="#4673bc"></stop><stop offset="0.652" stop-color="#6a94e0"></stop></linearGradient><linearGradient gradientTransform="matrix(0.7593 0.6508 -0.6508 0.7593 1357.4763 1840.3029)" gradientUnits="userSpaceOnUse" id="SVGID_21_" node-id="103" spreadMethod="pad" x1="-1435.0973" x2="-1435.0973" y1="-382.4517" y2="-398.3611"><stop offset="0" stop-color="#4673bc"></stop><stop offset="0.652" stop-color="#6a94e0"></stop></linearGradient><linearGradient gradientUnits="userSpaceOnUse" id="SVGID_22_" node-id="107" spreadMethod="pad" x1="4235.8877" x2="4235.8877" y1="603.4987" y2="501.2105"><stop offset="0" stop-color="#445677"></stop><stop offset="1" stop-color="#293861"></stop></linearGradient><linearGradient gradientUnits="userSpaceOnUse" id="SVGID_23_" node-id="111" spreadMethod="pad" x1="4303.5195" x2="4250.1157" y1="558.8136" y2="558.8136"><stop offset="0" stop-color="#445677"></stop><stop offset="1" stop-color="#293861"></stop></linearGradient><linearGradient gradientTransform="matrix(0.8981 0.4397 -0.4397 0.8981 -4193.1162 -1842.0183)" gradientUnits="userSpaceOnUse" id="SVGID_24_" node-id="115" spreadMethod="pad" x1="5318.4717" x2="5318.4717" y1="23.7401" y2="-51.5384"><stop offset="0" stop-color="#fad96e"></stop><stop offset="1" stop-color="#ffb32c"></stop></linearGradient><linearGradient gradientTransform="matrix(0.951 0.3091 -0.3091 0.951 -4024.4197 -2100.1133)" gradientUnits="userSpaceOnUse" id="SVGID_25_" node-id="119" spreadMethod="pad" x1="5166.4785" x2="5175.7935" y1="1059.3322" y2="993.743"><stop offset="0" stop-color="#fad96e"></stop><stop offset="1" stop-color="#ffa91f"></stop></linearGradient><linearGradient gradientTransform="matrix(-0.8274 -0.5617 -0.5617 0.8274 -7736.4897 -3917.6519)" gradientUnits="userSpaceOnUse" id="SVGID_26_" node-id="123" spreadMethod="pad" x1="-9383.0625" x2="-9373.947" y1="-1006.3092" y2="-1070.4902"><stop offset="0" stop-color="#fad96e"></stop><stop offset="1" stop-color="#ffa91f"></stop></linearGradient><linearGradient gradientUnits="userSpaceOnUse" id="SVGID_27_" node-id="127" spreadMethod="pad" x1="4277.773" x2="4305.6885" y1="479.9099" y2="422.8957"><stop offset="0" stop-color="#4f5c7c"></stop><stop offset="1" stop-color="#274168"></stop></linearGradient></defs><g node-id="400"><g node-id="401"><path d="M 484.17 200.66 C 445.80 230.95 363.43 234.47 303.00 198.44 C 242.57 162.41 131.00 167.06 100.78 233.31 C 70.56 299.56 137.97 364.64 113.56 412.29 C 89.15 459.94 7.80 527.34 63.58 608.69 C 119.36 690.04 190.18 669.31 232.80 661.14 C 316.97 645.01 422.59 776.81 541.42 677.27 C 609.89 619.92 711.86 719.36 751.59 595.91 C 784.37 494.05 665.92 456.41 701.62 387.88 C 739.58 315.00 732.29 228.64 691.16 186.82 C 652.86 147.87 550.41 148.36 484.17 200.66 Z" fill="url(#SVGID_1_)" fill-rule="nonzero" group-id="1,2" node-id="318" stroke="none" target-height="628.94" target-width="776.57" target-x="7.8" target-y="147.87"></path><path d="M 281.54 582.11 C 283.31 580.48 359.28 492.04 359.28 492.04 L 680.41 492.04 L 580.91 603.35 L 281.54 582.11 Z" fill="url(#SVGID_2_)" fill-rule="nonzero" group-id="1,2" node-id="320" stroke="none" target-height="111.30997" target-width="398.86996" target-x="281.54" target-y="492.04"></path><g node-id="404"><path d="M 116.78 403.77 C 116.78 403.77 116.56 403.20 116.26 403.81 C 113.56 409.30 89.11 468.77 87.17 514.67 C 87.17 514.67 83.09 541.04 117.28 540.69 C 145.82 540.40 145.06 516.09 144.96 507.90 C 144.57 474.68 116.78 403.77 116.78 403.77 Z" fill="url(#SVGID_3_)" fill-rule="nonzero" group-id="1,2,5" node-id="324" stroke="none" target-height="137.83997" target-width="62.73001" target-x="83.09" target-y="403.2"></path><g node-id="408"><path d="M 115.99 569.89 C 115.44 569.89 114.99 569.44 114.99 568.89 L 114.99 419.76 C 114.99 419.21 115.44 418.76 115.99 418.76 C 116.54 418.76 116.99 419.21 116.99 419.76 L 116.99 568.89 C 116.99 569.44 116.55 569.89 115.99 569.89 Z" fill="url(#SVGID_4_)" fill-rule="nonzero" group-id="1,2,5,9" node-id="328" stroke="none" target-height="151.13" target-width="2" target-x="114.99" target-y="418.76"></path></g></g><g node-id="405"><path d="M 617.63 361.01 C 617.63 361.01 617.49 360.64 617.30 361.04 C 615.56 364.57 599.82 402.87 598.57 432.42 C 598.57 432.42 595.94 449.40 617.96 449.18 C 636.34 449.00 635.85 433.34 635.78 428.07 C 635.52 406.67 617.63 361.01 617.63 361.01 Z" fill="url(#SVGID_5_)" fill-rule="nonzero" group-id="1,2,6" node-id="334" stroke="none" target-height="88.75998" target-width="40.400024" target-x="595.94" target-y="360.64"></path><g node-id="409"><path d="M 617.12 467.97 C 616.76 467.97 616.48 467.68 616.48 467.33 L 616.48 371.30 C 616.48 370.94 616.77 370.66 617.12 370.66 C 617.47 370.66 617.76 370.95 617.76 371.30 L 617.76 467.32 C 617.77 467.68 617.48 467.97 617.12 467.97 Z" fill="url(#SVGID_6_)" fill-rule="nonzero" group-id="1,2,6,10" node-id="338" stroke="none" target-height="97.31" target-width="1.2900391" target-x="616.48" target-y="370.66"></path></g></g><g node-id="406"><path d="M 691.00 527.56 C 691.00 537.04 683.31 544.73 673.83 544.73 C 664.35 544.73 656.66 537.04 656.66 527.56 C 656.66 518.08 664.35 510.39 673.83 510.39 C 683.31 510.39 691.00 518.08 691.00 527.56 Z" fill="url(#SVGID_7_)" fill-rule="nonzero" group-id="1,2,7" node-id="344" stroke="none" target-height="34.339966" target-width="34.340027" target-x="656.66" target-y="510.39"></path><path d="M 673.89 569.99 C 673.60 569.99 673.36 569.75 673.36 569.46 L 673.36 515.25 C 673.36 514.96 673.60 514.72 673.89 514.72 C 674.18 514.72 674.42 514.96 674.42 515.25 L 674.42 569.46 C 674.42 569.75 674.18 569.99 673.89 569.99 Z" fill="url(#SVGID_8_)" fill-rule="nonzero" group-id="1,2,7" node-id="346" stroke="none" target-height="55.27002" target-width="1.0599976" target-x="673.36" target-y="514.72"></path></g><path d="M 480.41 116.67 C 480.41 135.86 464.85 151.42 445.66 151.42 C 426.47 151.42 410.91 135.86 410.91 116.67 C 410.91 97.48 426.47 81.92 445.66 81.92 C 464.85 81.92 480.41 97.48 480.41 116.67 Z" fill="url(#SVGID_9_)" fill-rule="nonzero" group-id="1,2" node-id="349" stroke="none" target-height="69.5" target-width="69.5" target-x="410.91" target-y="81.92"></path><path d="M 465.44 135.62 L 430.87 135.62 C 428.64 125.01 419.22 117.04 407.94 117.04 C 396.66 117.04 387.25 125.01 385.01 135.62 L 375.96 135.62 C 365.23 135.62 356.52 144.32 356.52 155.06 L 356.52 155.06 C 356.52 165.79 365.22 174.50 375.96 174.50 L 465.43 174.50 C 476.16 174.50 484.87 165.80 484.87 155.06 L 484.87 155.06 C 484.88 144.32 476.17 135.62 465.44 135.62 Z" fill="url(#SVGID_10_)" fill-rule="nonzero" group-id="1,2" node-id="351" stroke="none" target-height="57.46" target-width="128.36002" target-x="356.52" target-y="117.04"></path></g><g node-id="402"><path d="M 267.15 391.80 L 358.55 318.50 C 365.98 330.42 379.20 338.37 394.25 338.37 C 410.68 338.37 424.94 328.89 431.85 315.11 L 523.96 391.96 L 534.79 378.98 L 436.28 296.79 C 436.28 296.63 436.29 296.48 436.29 296.32 C 436.29 273.14 417.43 254.28 394.24 254.28 C 371.06 254.28 352.20 273.14 352.20 296.32 C 352.20 298.12 352.33 299.90 352.55 301.64 L 256.57 378.61 L 267.15 391.80 Z M 369.11 296.32 C 369.11 282.46 380.39 271.18 394.25 271.18 C 408.11 271.18 419.39 282.46 419.39 296.32 C 419.39 310.18 408.11 321.46 394.25 321.46 C 380.39 321.46 369.11 310.19 369.11 296.32 Z" fill="url(#SVGID_11_)" fill-rule="nonzero" group-id="1,3" node-id="356" stroke="none" target-height="137.68" target-width="278.21997" target-x="256.57" target-y="254.28"></path><path d="M 265.18 391.69 L 353.49 320.87 C 360.67 332.38 373.44 340.07 387.98 340.07 C 403.86 340.07 417.63 330.91 424.31 317.60 L 513.30 391.85 L 523.76 379.31 L 428.59 299.90 C 428.59 299.75 428.60 299.60 428.60 299.44 C 428.60 277.04 410.38 258.82 387.98 258.82 C 365.58 258.82 347.36 277.04 347.36 299.44 C 347.36 301.18 347.48 302.90 347.70 304.58 L 254.97 378.95 L 265.18 391.69 Z M 363.68 299.45 C 363.68 286.05 374.58 275.16 387.97 275.16 C 401.37 275.16 412.26 286.06 412.26 299.45 C 412.26 312.85 401.36 323.74 387.97 323.74 C 374.58 323.74 363.68 312.84 363.68 299.45 Z" fill="url(#SVGID_12_)" fill-rule="nonzero" group-id="1,3" node-id="358" stroke="none" target-height="133.03" target-width="268.79" target-x="254.97" target-y="258.82"></path><path d="M 227.02 618.92 L 553.37 618.92 C 571.26 618.92 585.76 604.42 585.76 586.53 L 585.76 387.32 C 585.76 365.93 568.42 348.60 547.04 348.60 L 227.02 348.60 C 209.13 348.60 194.63 363.10 194.63 380.99 L 194.63 586.53 C 194.63 604.42 209.13 618.92 227.02 618.92 Z" fill="url(#SVGID_13_)" fill-rule="nonzero" group-id="1,3" node-id="360" stroke="none" target-height="270.31998" target-width="391.13" target-x="194.63" target-y="348.6"></path><path d="M 220.03 618.92 L 548.62 618.92 C 562.65 618.92 574.02 607.55 574.02 593.52 L 574.02 385.74 C 574.02 371.71 562.65 360.34 548.62 360.34 L 220.03 360.34 C 206.00 360.34 194.63 371.71 194.63 385.74 L 194.63 593.52 C 194.63 607.55 206.00 618.92 220.03 618.92 Z" fill="url(#SVGID_14_)" fill-rule="nonzero" group-id="1,3" node-id="362" stroke="none" target-height="258.58" target-width="379.39" target-x="194.63" target-y="360.34"></path><path d="M 194.67 424.54 L 574.06 424.54 L 574.06 385.75 C 574.06 371.72 562.69 360.35 548.66 360.35 L 220.06 360.35 C 206.03 360.35 194.66 371.72 194.66 385.75 L 194.66 424.54 Z" fill="url(#SVGID_15_)" fill-rule="nonzero" group-id="1,3" node-id="364" stroke="none" target-height="64.19" target-width="379.4" target-x="194.66" target-y="360.35"></path><g node-id="407"><path d="M 329.24 456.47 L 308.12 456.47 C 306.85 456.47 305.66 457.06 304.88 458.06 L 262.33 513.00 C 261.77 513.72 261.47 514.60 261.47 515.51 L 261.47 538.66 C 261.47 540.92 263.30 542.75 265.56 542.75 L 306.90 542.75 C 309.16 542.75 310.99 544.58 310.99 546.84 L 310.99 560.30 C 310.99 562.56 312.82 564.39 315.08 564.39 L 329.22 564.39 C 331.48 564.39 333.31 562.56 333.31 560.30 L 333.31 546.84 C 333.31 544.58 335.14 542.75 337.40 542.75 L 337.40 542.75 C 339.66 542.75 341.49 540.92 341.49 538.66 L 341.49 524.52 C 341.49 522.26 339.66 520.43 337.40 520.43 L 337.40 520.43 C 335.14 520.43 333.31 518.60 333.31 516.34 L 333.31 460.57 C 333.33 458.30 331.50 456.47 329.24 456.47 Z M 289.94 513.83 L 303.68 496.09 C 306.07 493.01 311.01 494.69 311.01 498.60 L 311.01 516.34 C 311.01 518.60 309.18 520.43 306.92 520.43 L 293.18 520.43 C 289.77 520.42 287.86 516.51 289.94 513.83 Z" fill="url(#SVGID_16_)" fill-rule="nonzero" group-id="1,3,8" node-id="368" stroke="none" target-height="107.92001" target-width="80.01999" target-x="261.47" target-y="456.47"></path><path d="M 503.98 516.33 L 503.98 460.56 C 503.98 458.30 502.15 456.47 499.89 456.47 L 478.77 456.47 C 477.50 456.47 476.31 457.06 475.53 458.06 L 432.98 513.00 C 432.42 513.72 432.12 514.60 432.12 515.51 L 432.12 538.66 C 432.12 540.92 433.95 542.75 436.21 542.75 L 477.55 542.75 C 479.81 542.75 481.64 544.58 481.64 546.84 L 481.64 560.30 C 481.64 562.56 483.47 564.39 485.73 564.39 L 499.87 564.39 C 502.13 564.39 503.96 562.56 503.96 560.30 L 503.96 546.84 C 503.96 544.58 505.79 542.75 508.05 542.75 L 508.05 542.75 C 510.31 542.75 512.14 540.92 512.14 538.66 L 512.14 524.52 C 512.14 522.26 510.31 520.43 508.05 520.43 L 508.05 520.43 C 505.81 520.42 503.98 518.59 503.98 516.33 Z M 460.59 513.83 L 474.33 496.09 C 476.72 493.01 481.66 494.69 481.66 498.60 L 481.66 516.34 C 481.66 518.60 479.83 520.43 477.57 520.43 L 463.83 520.43 C 460.42 520.42 458.51 516.51 460.59 513.83 Z" fill="url(#SVGID_17_)" fill-rule="nonzero" group-id="1,3,8" node-id="370" stroke="none" target-height="107.92001" target-width="80.02002" target-x="432.12" target-y="456.47"></path><path d="M 352.82 565.17 L 420.82 565.17 C 423.08 565.17 424.91 563.34 424.91 561.08 L 424.91 460.08 C 424.91 457.82 423.08 455.99 420.82 455.99 L 352.82 455.99 C 350.56 455.99 348.73 457.82 348.73 460.08 L 348.73 561.08 C 348.73 563.34 350.56 565.17 352.82 565.17 Z M 402.59 482.41 L 402.59 538.75 C 402.59 541.01 400.76 542.84 398.50 542.84 L 375.16 542.84 C 372.90 542.84 371.07 541.01 371.07 538.75 L 371.07 482.41 C 371.07 480.15 372.90 478.32 375.16 478.32 L 398.50 478.32 C 400.75 478.32 402.59 480.15 402.59 482.41 Z" fill="url(#SVGID_18_)" fill-rule="nonzero" group-id="1,3,8" node-id="372" stroke="none" target-height="109.17999" target-width="76.17999" target-x="348.73" target-y="455.99"></path></g></g><path d="M 600.91 619.62 L 655.85 555.94 L 629.64 623.13 Z" fill="url(#SVGID_19_)" fill-rule="nonzero" group-id="1" node-id="376" stroke="none" target-height="67.19" target-width="54.940002" target-x="600.91" target-y="555.94"></path><path d="M 602.37 609.62 C 602.37 609.62 605.62 614.50 612.92 610.68 C 616.83 613.40 621.84 615.65 625.31 616.56 C 628.78 617.47 628.99 621.96 628.43 623.17 C 623.77 622.70 610.29 623.81 601.13 620.23 C 601.85 612.70 602.37 609.62 602.37 609.62 Z" fill="url(#SVGID_20_)" fill-rule="nonzero" group-id="1,4" node-id="380" stroke="none" target-height="14.190002" target-width="27.859985" target-x="601.13" target-y="609.62"></path><path d="M 600.49 622.85 L 600.92 619.62 C 600.92 619.62 611.46 622.25 629.30 620.65 C 629.47 622.31 629.65 623.13 629.65 623.13 C 629.65 623.13 616.09 625.16 600.49 622.85 Z" fill="#d4e4fe" fill-rule="nonzero" group-id="1,4" node-id="382" stroke="none" target-height="5.539978" target-width="29.160034" target-x="600.49" target-y="619.62"></path><path d="M 516.89 595.13 C 516.89 595.13 516.84 600.94 524.16 603.07 C 526.11 608.07 520.43 614.86 529.53 615.49 C 532.87 615.72 531.28 620.61 530.26 621.12 C 519.31 625.13 515.63 611.00 510.64 602.14 C 514.96 597.06 516.89 595.13 516.89 595.13 Z" fill="url(#SVGID_21_)" fill-rule="nonzero" group-id="1,4" node-id="384" stroke="none" target-height="30" target-width="22.22998" target-x="510.64" target-y="595.13"></path><path d="M 565.73 501.21 C 565.73 501.21 551.29 500.95 548.06 520.06 C 544.83 539.17 549.63 543.72 542.68 557.35 C 539.06 564.45 515.53 598.47 515.53 598.47 L 522.36 603.50 C 522.36 603.50 560.30 568.78 565.88 554.79 C 571.46 540.80 575.71 525.96 576.01 513.33 C 576.28 500.71 565.73 501.21 565.73 501.21 Z" fill="url(#SVGID_22_)" fill-rule="nonzero" group-id="1,4" node-id="386" stroke="none" target-height="102.79001" target-width="60.75" target-x="515.53" target-y="500.71"></path><path d="M 569.14 505.20 C 569.14 505.20 584.01 508.73 584.89 509.18 C 585.33 509.41 587.78 516.25 590.13 523.13 C 595.17 530.00 613.15 555.41 613.34 568.64 C 613.63 588.77 612.38 612.31 612.38 612.31 L 603.14 612.42 C 603.14 612.42 599.64 573.52 597.29 570.11 C 596.87 569.50 596.00 568.16 594.87 566.37 C 589.73 560.15 578.37 549.72 566.71 539.30 C 550.27 524.64 569.14 505.20 569.14 505.20 Z" fill="url(#SVGID_23_)" fill-rule="nonzero" group-id="1,4" node-id="388" stroke="none" target-height="107.21997" target-width="63.359985" target-x="550.27" target-y="505.2"></path><path d="M 599.56 447.92 C 599.56 447.92 588.87 439.55 582.57 443.56 C 576.27 447.56 568.30 462.46 568.30 462.46 L 577.15 466.84 L 553.35 506.51 L 594.04 528.34 L 608.64 486.06 L 620.43 486.75 C 620.43 486.75 628.39 461.51 616.81 459.32 C 611.36 457.02 609.77 455.98 609.77 455.98 C 609.77 455.98 606.28 460.25 601.78 457.16 C 597.29 454.07 599.56 447.92 599.56 447.92 Z" fill="url(#SVGID_24_)" fill-rule="nonzero" group-id="1,4" node-id="390" stroke="none" target-height="88.79004" target-width="75.04004" target-x="553.35" target-y="439.55"></path><path d="M 585.57 442.61 C 589.45 443.22 593.61 446.66 590.13 455.46 C 586.65 464.26 573.47 473.96 574.07 480.28 C 574.67 486.68 577.44 496.86 579.40 502.88 C 576.60 507.05 572.68 509.66 572.68 509.66 C 572.68 509.66 562.35 494.91 559.56 484.43 C 556.77 473.95 566.63 459.18 574.25 449.02 C 579.98 441.36 585.57 442.61 585.57 442.61 Z" fill="url(#SVGID_25_)" fill-rule="nonzero" group-id="1,4" node-id="392" stroke="none" target-height="68.30002" target-width="36.839966" target-x="556.77" target-y="441.36"></path><path d="M 620.55 462.52 C 617.76 459.33 612.87 457.62 609.02 466.21 C 605.17 474.80 606.67 492.85 602.00 496.18 C 597.28 499.55 588.66 503.25 583.38 505.14 C 582.26 510.26 582.89 515.47 582.89 515.47 C 582.89 515.47 599.25 515.91 608.08 512.05 C 616.91 508.19 620.90 490.08 623.14 476.85 C 624.83 466.88 620.55 462.52 620.55 462.52 Z" fill="url(#SVGID_26_)" fill-rule="nonzero" group-id="1,4" node-id="394" stroke="none" target-height="58.289978" target-width="42.570007" target-x="582.26" target-y="457.62"></path><path d="M 587.33 438.70 C 587.76 434.01 591.83 430.80 596.63 431.53 C 597.03 430.22 601.07 428.55 602.01 426.93 C 605.51 420.90 611.27 419.93 616.01 423.37 C 625.80 426.16 624.02 435.57 620.76 444.92 C 623.56 450.53 622.28 457.33 620.70 460.10 C 625.45 465.17 622.79 471.68 619.31 476.62 C 618.91 477.18 618.49 477.68 618.06 478.14 C 617.85 483.99 609.72 486.00 606.74 483.03 C 603.57 479.87 603.17 478.54 597.42 481.27 C 591.67 484.00 586.18 479.73 586.12 473.93 C 586.06 468.13 581.84 469.83 580.00 468.30 C 576.67 465.53 578.85 462.37 578.85 462.37 C 578.85 462.37 574.00 462.11 572.84 454.99 C 571.50 437.99 584.78 437.90 587.33 438.70 Z" fill="url(#SVGID_27_)" fill-rule="nonzero" group-id="1,4" node-id="396" stroke="none" target-height="66.07001" target-width="54.299988" target-x="571.5" target-y="419.93"></path><path d="M 511.81 600.26 C 511.81 600.26 516.73 612.29 517.72 613.87 C 518.71 615.45 523.62 623.14 531.98 618.92 C 531.94 620.41 531.87 621.35 531.87 621.35 C 531.87 621.35 522.45 627.61 516.54 616.73 C 510.63 605.85 509.79 602.10 509.79 602.10 L 511.81 600.26 Z" fill="#d4e4fe" fill-rule="nonzero" group-id="1,4" node-id="398" stroke="none" target-height="27.349976" target-width="22.189972" target-x="509.79" target-y="600.26"></path></g></svg>